<?xml version="1.0" encoding="UTF-8"?>
<svg width="1200pt" height="1200pt" version="1.1" viewBox="0 0 1200 1200" xmlns="http://www.w3.org/2000/svg">
 <g fill="#fff">
  <path d="m722.8 1161.8c19.277 21.207 35.062 15.109 35.062-13.547v-445.93l-262.7 209.08z"/>
  <path d="m480.22 314.64 10.629-7.8164-220.6-264.78c-18.391-21.988-48.402-21.988-66.742 0l-193.77 232.58c-18.391 21.988-9.8984 40.016 18.703 40.016z"/>
  <path d="m705.77 262.54c-28.656 0-73.047 10.473-98.68 23.289l-109.73 80.914h-260.51v208.41c0 28.656 15.785 69.453 35.062 90.656l188.14 207 725.98-577.8c22.457-17.871 17.297-32.461-11.359-32.461z"/>
 </g>
</svg>
