<?xml version="1.0" encoding="UTF-8"?>
<svg width="1200pt" height="1200pt" version="1.1" viewBox="0 0 1200 1200" xmlns="http://www.w3.org/2000/svg">
 <g fill="#fff">
  <path d="m64.121 854.19 168.75 172.63 122.63 16.246-93.027-161.06z"/>
  <path d="m735.96 650.87-232.12-442.14-80.684 218.09 253.53 353.81z"/>
  <path d="m671.63 805.62c-0.26953-0.28906-0.52734-0.59766-0.75781-0.92578l-292.04-407.55-169.21-223.39v579.02l66.793 115.88c0.003907 0.003906 0.003907 0.007812 0.007813 0.011718l102.13 176.82h348.59l100.97-73.672-156.45-166.14c-0.011718-0.011718-0.023437-0.027343-0.03125-0.039062z"/>
  <path d="m754.93 654.47c0 0.003906-0.003906 0.003906-0.003906 0.007813l-62.68 137.19-2.6172 5.7266 148.75 157.97 162.23-474.09c1.2969-3.793 4.8594-6.3398 8.8672-6.3398h126.72l-209.64-182.57z"/>
 </g>
</svg>
