<?xml version="1.0" encoding="UTF-8" standalone="no"?><!DOCTYPE svg PUBLIC "-//W3C//DTD SVG 1.1//EN" "http://www.w3.org/Graphics/SVG/1.1/DTD/svg11.dtd"><svg width="100%" height="100%" viewBox="0 0 240 240" version="1.1" xmlns="http://www.w3.org/2000/svg" xmlns:xlink="http://www.w3.org/1999/xlink" xml:space="preserve" xmlns:serif="http://www.serif.com/" style="fill-rule:evenodd;clip-rule:evenodd;stroke-linecap:round;stroke-linejoin:round;"><path d="M80,70.048l-0.1,-0" style="fill:none;fill-rule:nonzero;stroke:#fff;stroke-width:20px;"/><path d="M206,180.048l-86,-0c-43.887,-0 -80,-36.114 -80,-80l0,-30c-0,-0.036 -0,-0.071 -0,-0.106c-0,-21.943 18.057,-40 40,-40c13.06,-0 25.325,6.396 32.8,17.106l107.2,153" style="fill:none;fill-rule:nonzero;stroke:#fff;stroke-width:20px;"/><path d="M40,70.048l-20,5l20,5" style="fill:none;fill-rule:nonzero;stroke:#fff;stroke-width:20px;"/><path d="M140,180.048l0,30" style="fill:none;fill-rule:nonzero;stroke:#fff;stroke-width:20px;"/><path d="M100,177.548l0,32.5" style="fill:none;fill-rule:nonzero;stroke:#fff;stroke-width:20px;"/><path d="M170,180.048c-32.914,-0.002 -59.997,-27.087 -59.997,-60c-0,-17.8 7.921,-34.708 21.597,-46.1" style="fill:none;fill-rule:nonzero;stroke:#fff;stroke-width:20px;"/></svg>