<?xml version="1.0" encoding="UTF-8"?>
<svg width="1200pt" height="1200pt" version="1.1" viewBox="0 0 1200 1200" xmlns="http://www.w3.org/2000/svg">
 <path d="m901.56 72.48c-18 1.9219-36.121 6.1211-53.039 12.48-57.238 21.602-106.8 56.281-154.44 93.961-3.3594 2.6406-6.2383 7.4414-6.9609 11.762-4.8008 27-9.2383 54-13.199 81.121-2.1602 15.359-3.1211 30.961-4.6797 46.441h-2.8789c-5.5195-33.961-11.039-67.801-16.801-102.84-2.6406 1.9219-4.4414 2.8789-5.8789 4.3203-41.641 40.801-83.641 81.48-124.68 122.88-6.6016 6.7188-11.52 16.441-13.801 25.68-5.0391 20.641-8.7617 41.762-11.641 62.879-3.4805 25.199-5.5195 50.641-8.2812 75.961-0.83984 0-1.5586 0.12109-2.3984 0.23828-5.5195-33.602-10.922-67.199-16.801-102.72-4.3203 4.8008-7.5586 8.0391-10.559 11.762-16.922 21.121-34.199 41.879-50.281 63.48-45.719 61.199-87.238 124.92-117 195.72-4.0781 9.6016-4.0781 17.762 0 27.238 7.4414 16.922 13.559 34.441 20.281 51.719l-2.3984 1.8008c-11.281-9.4805-22.68-19.078-35.52-29.879-13.801 51.238-21.359 100.68-15.961 151.68 2.8789 27.238 7.5586 53.52 28.559 73.199 1.3203 1.0781 5.2812 4.0781 10.68 7.6797 135.6-280.56 316.68-527.28 535.8-746.88-22.32 26.398-45.121 52.441-66.961 79.32-169.68 207.48-323.04 426.12-449.76 662.88-1.1992 2.1602-2.0391 4.4414-2.8789 6.7188-26.281 54-48.602 109.2-64.32 167.04 2.6406-1.5586 4.0781-3.7188 5.2812-5.8789 25.801-49.441 51.48-98.879 77.16-148.44 31.32 6.8398 60.238 0.60156 85.68-21.961 21.121-18.719 42.48-37.68 61.199-58.801 27-30.602 51.602-63.238 77.762-95.641-25.559-6.9609-48.602-13.32-71.52-19.559 0.23828-1.3203 0.48047-2.5195 0.83984-3.8398 15.84-2.5195 31.559-5.1602 47.398-7.6797 33.719-5.2812 64.32-15.359 79.801-49.922 1.1992-2.7617 3.4805-4.9219 5.2812-7.4414 75.84-109.08 152.52-217.56 227.04-327.6 26.52-39.121 48-81.719 72.48-123.84-16.68-5.6406-30.84-10.559-48.238-16.559 19.559-5.0391 35.879-9.1211 52.078-13.68 3.7188-1.0781 8.7617-3.4805 10.078-6.6016 13.559-32.641 27.48-65.16 25.922-101.64-1.3203-32.762-19.801-50.039-52.559-46.68z" fill="#fff"/>
</svg>
