<?xml version="1.0" encoding="UTF-8" standalone="no"?><!DOCTYPE svg PUBLIC "-//W3C//DTD SVG 1.1//EN" "http://www.w3.org/Graphics/SVG/1.1/DTD/svg11.dtd"><svg width="100%" height="100%" viewBox="0 0 733 1081" version="1.1" xmlns="http://www.w3.org/2000/svg" xmlns:xlink="http://www.w3.org/1999/xlink" xml:space="preserve" xmlns:serif="http://www.serif.com/" style="fill-rule:evenodd;clip-rule:evenodd;stroke-linejoin:round;stroke-miterlimit:2;"><path d="M667.799,12.535c-18,1.922 -36.121,6.122 -53.039,12.48c-57.238,21.602 -106.8,56.281 -154.44,93.961c-3.359,2.641 -6.238,7.442 -6.961,11.762c-4.8,27 -9.238,54 -13.199,81.121c-2.16,15.359 -3.121,30.961 -4.679,46.441l-2.879,0c-5.52,-33.961 -11.039,-67.801 -16.801,-102.84c-2.641,1.922 -4.442,2.879 -5.879,4.321c-41.641,40.801 -83.641,81.48 -124.68,122.88c-6.602,6.719 -11.52,16.441 -13.801,25.68c-5.039,20.641 -8.762,41.762 -11.641,62.879c-3.481,25.199 -5.52,50.641 -8.281,75.961c-0.84,-0 -1.559,0.121 -2.399,0.238c-5.519,-33.602 -10.922,-67.199 -16.801,-102.72c-4.32,4.801 -7.558,8.039 -10.559,11.762c-16.922,21.121 -34.199,41.879 -50.281,63.48c-45.719,61.199 -87.238,124.92 -117,195.72c-4.078,9.602 -4.078,17.762 0,27.238c7.442,16.922 13.559,34.441 20.281,51.719l-2.398,1.801c-11.281,-9.481 -22.68,-19.078 -35.52,-29.879c-13.801,51.238 -21.359,100.68 -15.961,151.68c2.879,27.238 7.559,53.52 28.559,73.199c1.32,1.078 5.281,4.078 10.68,7.679c135.6,-280.56 316.68,-527.28 535.8,-746.88c-22.32,26.398 -45.121,52.441 -66.961,79.32c-169.68,207.48 -323.04,426.12 -449.76,662.88c-1.199,2.161 -2.039,4.442 -2.879,6.719c-26.281,54 -48.602,109.2 -64.32,167.04c2.641,-1.558 4.078,-3.719 5.281,-5.879c25.801,-49.441 51.48,-98.879 77.16,-148.44c31.32,6.84 60.238,0.602 85.68,-21.961c21.121,-18.719 42.48,-37.68 61.199,-58.801c27,-30.602 51.602,-63.238 77.762,-95.641c-25.559,-6.961 -48.602,-13.32 -71.52,-19.559c0.238,-1.32 0.481,-2.519 0.84,-3.839c15.84,-2.52 31.559,-5.161 47.398,-7.68c33.719,-5.281 64.32,-15.359 79.801,-49.922c1.199,-2.762 3.481,-4.922 5.281,-7.442c75.84,-109.08 152.52,-217.56 227.04,-327.6c26.52,-39.121 48,-81.719 72.48,-123.84c-16.68,-5.64 -30.84,-10.559 -48.238,-16.559c19.559,-5.039 35.879,-9.121 52.078,-13.68c3.719,-1.078 8.762,-3.48 10.078,-6.601c13.559,-32.641 27.48,-65.16 25.922,-101.64c-1.32,-32.762 -19.801,-50.039 -52.559,-46.68l0.116,0.122Z" style="fill:url(#_Radial1);fill-rule:nonzero;"/><path d="M58.312,910.962c-1.716,-0.262 -3.374,-0.895 -4.852,-1.881c-5.873,-3.918 -10.173,-7.194 -11.61,-8.367c-0.211,-0.173 -0.416,-0.352 -0.615,-0.539c-23.23,-21.768 -29.103,-50.564 -32.288,-80.693c-5.553,-52.47 2.109,-103.349 16.308,-156.063c1.066,-3.96 4.081,-7.1 7.993,-8.328c3.912,-1.228 8.181,-0.374 11.319,2.266c1.538,1.294 3.056,2.57 4.555,3.832c-1.807,-4.518 -3.671,-9.01 -5.628,-13.459c-0.012,-0.029 -0.025,-0.058 -0.037,-0.087c-5.487,-12.749 -5.513,-23.73 -0.035,-36.645c30.141,-71.698 72.14,-136.256 118.439,-198.232c16.164,-21.712 33.526,-42.579 50.534,-63.808c0.008,-0.009 0.015,-0.018 0.022,-0.027c3.124,-3.877 6.484,-7.26 10.982,-12.259c3.085,-3.428 7.861,-4.785 12.287,-3.491c4.426,1.294 7.719,5.009 8.472,9.559c1.376,8.312 2.726,16.519 4.057,24.645c2.892,-20.79 6.607,-41.568 11.568,-61.89c0.003,-0.01 0.005,-0.02 0.008,-0.031c2.777,-11.247 8.855,-23.034 16.891,-31.214c0.013,-0.012 0.025,-0.025 0.038,-0.037c41.07,-41.432 83.101,-82.143 124.749,-122.95c1.8,-1.791 3.974,-3.106 7.27,-5.505c3.367,-2.45 7.764,-2.98 11.617,-1.4c3.852,1.581 6.61,5.046 7.286,9.155c1.618,9.838 3.216,19.582 4.801,29.26c2.848,-18.052 5.889,-36.067 9.092,-54.079c1.198,-7.043 5.897,-14.85 11.341,-19.13c48.611,-38.447 99.243,-73.734 157.647,-95.776l0.015,-0.005c17.25,-6.484 35.684,-10.846 54.043,-12.964c0.607,-0.162 1.234,-0.278 1.878,-0.344c20.428,-2.094 36.247,2.843 47.322,12.814c10.96,9.867 17.631,25.081 18.45,45.294c1.635,38.281 -12.6,72.501 -26.829,106.753c-0.008,0.02 -0.016,0.04 -0.025,0.06l-1.978,3.486l-3.357,3.589c-3.386,2.881 -8.394,5.211 -12.458,6.389c-0.031,0.009 -0.061,0.017 -0.091,0.026c-4.545,1.279 -9.1,2.521 -13.733,3.757c3.417,1.166 6.893,2.348 10.486,3.563c3.412,1.154 6.125,3.778 7.391,7.15c1.265,3.372 0.95,7.134 -0.86,10.247c-24.621,42.365 -46.248,85.196 -72.919,124.539c-74.547,110.081 -151.255,218.601 -227.123,327.722c-0.03,0.042 -0.06,0.085 -0.09,0.127c-1.306,1.827 -3.167,3.241 -4.037,5.243c-0.018,0.042 -0.037,0.084 -0.055,0.126c-17.354,38.744 -51.082,50.948 -88.879,56.87c-0.721,0.114 -1.442,0.229 -2.162,0.344c8.656,2.372 17.527,4.798 26.724,7.303c3.909,1.065 7.017,4.03 8.264,7.885c1.247,3.855 0.464,8.079 -2.081,11.231c-26.271,32.541 -50.986,65.31 -78.1,96.043l-0.018,0.02c-19.038,21.48 -40.74,40.784 -62.218,59.82c-26.079,23.128 -55.402,31.019 -87.067,26.376c-24.326,46.935 -48.656,93.765 -73.096,140.598c-0.051,0.097 -0.102,0.192 -0.155,0.287c-2.159,3.876 -4.928,7.578 -9.665,10.374c-4.205,2.482 -9.494,2.169 -13.376,-0.791c-3.883,-2.961 -5.584,-7.978 -4.304,-12.69c14.456,-53.196 34.414,-104.192 57.892,-154.068Zm609.487,-898.427c-18,1.922 -36.121,6.122 -53.039,12.48c-57.238,21.602 -106.8,56.281 -154.44,93.961c-3.359,2.641 -6.238,7.442 -6.961,11.762c-4.8,27 -9.238,54 -13.199,81.121c-2.16,15.359 -3.121,30.961 -4.679,46.441l-2.879,0c-5.52,-33.961 -11.039,-67.801 -16.801,-102.84c-2.641,1.922 -4.442,2.879 -5.879,4.321c-41.641,40.801 -83.641,81.48 -124.68,122.88c-6.602,6.719 -11.52,16.441 -13.801,25.68c-5.039,20.641 -8.762,41.762 -11.641,62.879c-3.481,25.199 -5.52,50.641 -8.281,75.961c-0.84,-0 -1.559,0.121 -2.399,0.238c-5.519,-33.602 -10.922,-67.199 -16.801,-102.72c-4.32,4.801 -7.558,8.039 -10.559,11.762c-16.922,21.121 -34.199,41.879 -50.281,63.48c-45.719,61.199 -87.238,124.92 -117,195.72c-4.078,9.602 -4.078,17.762 0,27.238c7.442,16.922 13.559,34.441 20.281,51.719l-2.398,1.801c-11.281,-9.481 -22.68,-19.078 -35.52,-29.879c-13.801,51.238 -21.359,100.68 -15.961,151.68c2.879,27.238 7.558,53.52 28.559,73.199c1.32,1.078 5.281,4.078 10.68,7.679c135.6,-280.56 316.68,-527.28 535.8,-746.88c-22.32,26.398 -45.121,52.441 -66.961,79.32c-169.68,207.48 -323.04,426.12 -449.76,662.88c-1.199,2.161 -2.039,4.442 -2.879,6.719c-26.281,54 -48.602,109.2 -64.32,167.04c2.641,-1.558 4.078,-3.719 5.281,-5.879c25.801,-49.441 51.48,-98.879 77.16,-148.44c31.32,6.84 60.238,0.602 85.68,-21.961c21.121,-18.719 42.48,-37.68 61.199,-58.801c27,-30.602 51.602,-63.238 77.762,-95.641c-25.559,-6.961 -48.602,-13.32 -71.52,-19.559c0.238,-1.32 0.481,-2.519 0.84,-3.839c15.84,-2.52 31.559,-5.161 47.398,-7.68c33.719,-5.281 64.32,-15.359 79.801,-49.922c1.199,-2.762 3.481,-4.922 5.281,-7.442c75.84,-109.08 152.52,-217.56 227.04,-327.6c26.52,-39.121 48,-81.719 72.48,-123.84c-16.68,-5.64 -30.84,-10.559 -48.238,-16.559c19.559,-5.039 35.879,-9.121 52.078,-13.68c3.719,-1.078 8.762,-3.48 10.078,-6.601c13.559,-32.641 27.48,-65.16 25.922,-101.64c-1.32,-32.762 -19.801,-50.039 -52.559,-46.68l0.116,0.122Z" style="fill-opacity:0.95;"/><defs><radialGradient id="_Radial1" cx="0" cy="0" r="1" gradientUnits="userSpaceOnUse" gradientTransform="matrix(1084.1,-1615.08,292,196,283.239,558.055)"><stop offset="0" style="stop-color:#fff;stop-opacity:0.95"/><stop offset="1" style="stop-color:#c5c6c7;stop-opacity:0.95"/></radialGradient></defs></svg>