<svg xmlns="http://www.w3.org/2000/svg" data-name="Layer 2" viewBox="0 0 128 160" x="0px" y="0px"><path d="m74,49.48c15.92,0,27.22-6.57,33.17-11.15,13.48-16.93,2.85-34.33,2.85-34.33-16.8,16.27-44.03,5.86-69.61,23.39-18.4,12.61-6.4,36.61-6.4,36.61-6-4-8-16-8-16-8,14-2.72,28.56,0,34,1,2-2,11-2,11C54,50,86,28,86,28,40,68,14,124,14,124h3l9-14c4.16-6.37,12.49-9.77,20-10,36.77,0,22.99-30.85,47.93-50.23-10.83,1.9-19.93-.29-19.93-.29Z"/><text x="0" y="143" fill="#000000" font-size="5px" font-weight="bold" font-family="'Helvetica Neue', Helvetica, Arial-Unicode, Arial, Sans-serif">Created by DompbelStudio</text><text x="0" y="148" fill="#000000" font-size="5px" font-weight="bold" font-family="'Helvetica Neue', Helvetica, Arial-Unicode, Arial, Sans-serif">from the Noun Project</text></svg>