<svg xmlns="http://www.w3.org/2000/svg" viewBox="0 0 100 125" x="0px" y="0px"><path d="M75.13,6.04c-1.5,.16-3.01,.51-4.42,1.04-4.77,1.8-8.9,4.69-12.87,7.83-.28,.22-.52,.62-.58,.98-.4,2.25-.77,4.5-1.1,6.76-.18,1.28-.26,2.58-.39,3.87h-.24c-.46-2.83-.92-5.65-1.4-8.57-.22,.16-.37,.24-.49,.36-3.47,3.4-6.97,6.79-10.39,10.24-.55,.56-.96,1.37-1.15,2.14-.42,1.72-.73,3.48-.97,5.24-.29,2.1-.46,4.22-.69,6.33-.07,0-.13,.01-.2,.02-.46-2.8-.91-5.6-1.4-8.56-.36,.4-.63,.67-.88,.98-1.41,1.76-2.85,3.49-4.19,5.29-3.81,5.1-7.27,10.41-9.75,16.31-.34,.8-.34,1.48,0,2.27,.62,1.41,1.13,2.87,1.69,4.31l-.2,.15c-.94-.79-1.89-1.59-2.96-2.49-1.15,4.27-1.78,8.39-1.33,12.64,.24,2.27,.63,4.46,2.38,6.1,.11,.09,.44,.34,.89,.64,11.3-23.38,26.39-43.94,44.65-62.24-1.86,2.2-3.76,4.37-5.58,6.61-14.14,17.29-26.92,35.51-37.48,55.24-.1,.18-.17,.37-.24,.56-2.19,4.5-4.05,9.1-5.36,13.92,.22-.13,.34-.31,.44-.49,2.15-4.12,4.29-8.24,6.43-12.37,2.61,.57,5.02,.05,7.14-1.83,1.76-1.56,3.54-3.14,5.1-4.9,2.25-2.55,4.3-5.27,6.48-7.97-2.13-.58-4.05-1.11-5.96-1.63,.02-.11,.04-.21,.07-.32,1.32-.21,2.63-.43,3.95-.64,2.81-.44,5.36-1.28,6.65-4.16,.1-.23,.29-.41,.44-.62,6.32-9.09,12.71-18.13,18.92-27.3,2.21-3.26,4-6.81,6.04-10.32-1.39-.47-2.57-.88-4.02-1.38,1.63-.42,2.99-.76,4.34-1.14,.31-.09,.73-.29,.84-.55,1.13-2.72,2.29-5.43,2.16-8.47-.11-2.73-1.65-4.17-4.38-3.89Z"/><text x="0" y="115" fill="#000000" font-size="5px" font-weight="bold" font-family="'Helvetica Neue', Helvetica, Arial-Unicode, Arial, Sans-serif">Created by Majide</text><text x="0" y="120" fill="#000000" font-size="5px" font-weight="bold" font-family="'Helvetica Neue', Helvetica, Arial-Unicode, Arial, Sans-serif">from the Noun Project</text></svg>