<svg xmlns="http://www.w3.org/2000/svg" xmlns:xlink="http://www.w3.org/1999/xlink" xml:space="preserve" version="1.1" style="shape-rendering:geometricPrecision;text-rendering:geometricPrecision;image-rendering:optimizeQuality;" viewBox="0 0 241 356.25" x="0px" y="0px" fill-rule="evenodd" clip-rule="evenodd"><defs><style type="text/css">
   
    .fil0 {fill:black}
   
  </style></defs><g><path class="fil0" d="M0 285c34,-87 65,-137 116,-186 43,-40 95,-52 125,-99 -12,44 -23,79 -76,94 9,1 18,2 28,-3 -7,16 -21,23 -38,32 8,1 17,1 26,-3 -11,23 -18,30 -60,46 11,2 19,1 27,-2 -15,18 -37,31 -53,32 8,2 17,5 28,2 -27,16 -50,24 -86,25 -12,17 -25,44 -37,62z"/></g><text x="0" y="300" fill="#000000" font-size="5px" font-weight="bold" font-family="'Helvetica Neue', Helvetica, Arial-Unicode, Arial, Sans-serif">Created by Kangrif</text><text x="0" y="305" fill="#000000" font-size="5px" font-weight="bold" font-family="'Helvetica Neue', Helvetica, Arial-Unicode, Arial, Sans-serif">from the Noun Project</text></svg>