<svg xmlns="http://www.w3.org/2000/svg" viewBox="0 0 100 125" x="0px" y="0px"><path d="M72.54,35.87c-1.92,1.58-3.71,3.05-5.51,4.52-.06-.06-.12-.12-.18-.18,1.6-2.73,3.16-5.48,4.81-8.18,.48-.78,.57-1.53,.41-2.38-.64-3.44-1.62-6.79-3.11-9.96-2.06-4.38-4.71-8.32-8.65-11.25-1.73-1.28-3.61-2.26-5.81-2.41-2.16-.15-3.93,.88-5.28,2.33-.54,.58-.29,1.94-.31,2.95-.02,.97,.08,1.94,.15,3.2-.95-1.11-1.7-1.97-2.53-2.95-.23,.5-.48,.85-.55,1.23-.38,2.01-1.08,4.04-1.01,6.04,.18,5.09,.85,10.16,1.05,15.25,.21,5.26,.16,10.54,.05,15.81-.03,1.24,.11,2.26,.85,3.19,1.19,1.49,2.42,2.95,3.67,4.47-1.65-.51-3.32-1.03-5.05-1.58-1.28,9.91-4.04,19.38-8.2,28.45,9.32-8.33,15.25-18.68,18.81-30.58,3.63-12.15,2.07-24.04-1.12-35.95,1.93,3.65,3.27,7.49,3.92,11.54,1.05,6.52,.64,13.02-.43,19.5-1.94,11.75-6.76,22.15-14.7,31.07-1.99,2.24-4.05,4.41-5.72,6.22-3.06,2.89-6.76,5.83-10.73,7.78,0,0,8.21-1.47,17.53-10.64,5.85-3.02,11.18-7.23,15.73-12.58-1.72-.67-3.34-1.3-5.12-1.99,.45-.4,.65-.6,.87-.76,2.47-1.79,5.13-3.25,8.03-4.19,1.12-.36,1.77-1.02,2.31-2.04,4.21-7.92,5.89-16.43,5.91-25.32,0-.15-.05-.31-.1-.61Z"/><text x="0" y="115" fill="#000000" font-size="5px" font-weight="bold" font-family="'Helvetica Neue', Helvetica, Arial-Unicode, Arial, Sans-serif">Created by Majide</text><text x="0" y="120" fill="#000000" font-size="5px" font-weight="bold" font-family="'Helvetica Neue', Helvetica, Arial-Unicode, Arial, Sans-serif">from the Noun Project</text></svg>