<svg xmlns="http://www.w3.org/2000/svg" data-name="Layer 4" viewBox="0 0 128 160" x="0px" y="0px"><path d="M12.5,118.77c18.75-11.89,18.35-11.47,18.64-12.12,.82-1.85,1.68-3.65,2.55-5.38,64.82-20.69,72.04-51.18,72.32-52.48,.18-.86-.4-1.69-1.27-1.8l-5.08-.67c10.64-2.07,10.23-1.93,10.63-2.22,8.71-6.52,7.49-32.57,7.44-33.68-.04-.86-.79-1.5-1.65-1.42-1.07,.11-26.53,2.92-66.18,27.75-37.09,23.22-28.6,54.48-26.84,59.74-7.64,11.4-12.62,20.18-12.67,20.27-.76,1.35,.79,2.84,2.11,2ZM72.26,47.26c.08-.04,.37,.02,.6,.25,.32,.32,.29,.8-.05,1.08-17.16,13.97-34.61,34.91-44.24,56.43l-12.42,7.88c12.25-20.22,35.37-54.01,56.1-65.63Z"/><text x="0" y="143" fill="#000000" font-size="5px" font-weight="bold" font-family="'Helvetica Neue', Helvetica, Arial-Unicode, Arial, Sans-serif">Created by manogi</text><text x="0" y="148" fill="#000000" font-size="5px" font-weight="bold" font-family="'Helvetica Neue', Helvetica, Arial-Unicode, Arial, Sans-serif">from the Noun Project</text></svg>