<svg xmlns="http://www.w3.org/2000/svg" xmlns:xlink="http://www.w3.org/1999/xlink" version="1.1" x="0px" y="0px" viewBox="0 0 512 640" enable-background="new 0 0 512 512" xml:space="preserve"><path d="M487.754,478.062l0.008-0.002c-0.124-0.496-5.738-22.575-17.891-56.634c1.348-1.459,2.129-3.387,2.129-5.425V312  c0-0.959-0.172-1.911-0.509-2.809c-2.519-6.717-25.092-66.106-41.833-82.849c-1.5-1.501-3.535-2.344-5.657-2.344  c-4.529,0-6.394,3.106-7.891,5.603l-2.586,4.311l2.397-16.78c0.276-1.929-0.162-3.892-1.23-5.521  c-3.394-5.173-6.33-9.953-9.169-14.576c-8.245-13.423-16.032-26.103-31.732-42.558c-1.938-2.031-4.798-2.898-7.535-2.284  c-2.738,0.612-4.956,2.614-5.843,5.276L360,158.703V144c0-2.254-0.95-4.402-2.618-5.918c-0.918-0.836-22.71-20.604-40.95-32.742  c-2.455-1.633-5.609-1.784-8.21-0.392c-0.538,0.288-1.034,0.633-1.483,1.024l-2.979-11.913c-0.515-2.06-1.828-3.83-3.649-4.922  C233.443,49.188,149.02,27.457,48.906,24.392C43.299,24.141,37.666,24,32,24v0.05C29.341,24.024,26.68,24,24,24  c-3.333,0-6.316,2.066-7.489,5.187c-1.172,3.119-0.288,6.64,2.221,8.834c0.632,0.553,63.382,55.573,78.611,78.417l0.007-0.005  c1.104,1.675,2.996,3.144,6.072,3.562l11.613,1.584c-0.982,0.708-1.864,1.733-2.512,3.211c-1.335,3.044-0.649,6.597,1.724,8.925  c7.419,7.278,23.403,27.183,31.097,38.723c1.215,1.824,3.126,3.068,5.286,3.444l18.982,3.301c-0.474,0.629-0.861,1.336-1.139,2.106  c-1.243,3.451,0.021,7.306,3.065,9.352c19.712,13.245,48.244,40.455,54.805,47.017c1.097,1.097,2.49,1.852,4.009,2.171l11.982,2.522  c-0.616,0.618-1.138,1.345-1.534,2.161c-1.486,3.065-0.867,6.736,1.542,9.146c24.463,24.463,63.113,70.984,63.5,71.451  c1.146,1.382,2.725,2.338,4.48,2.714l11.974,2.566c-0.337,0.343-0.647,0.719-0.922,1.126c-1.621,2.395-1.824,5.477-0.531,8.063l8,16  c0.774,1.548,2.029,2.803,3.578,3.577l119.542,59.771c13.808,37.612,20.144,62.493,20.275,63.015l0.007-0.002  c0.868,3.479,4.005,6.061,7.753,6.061c4.418,0,8-3.582,8-8C488,479.33,487.909,478.683,487.754,478.062z M371.234,175.596  c8.83,10.564,14.414,19.657,20.652,29.813c2.436,3.966,4.942,8.046,7.77,12.433l-5.981,41.866c-1.61-2.649-3.235-5.299-4.891-7.948  c-9.286-14.858-18.882-29.031-28.766-42.517L371.234,175.596z M320,160v-32.348c10.033,7.727,19.554,15.994,24,19.928l0,40.727  c-7.837-9.799-15.843-19.174-24.008-28.133C319.993,160.116,320,160.059,320,160z M289.048,101.179l9.104,36.414  c-16.025-15.586-32.603-29.632-49.696-42.063c-18.849-13.708-38.333-25.452-58.395-35.241  C226.537,70.271,259.602,83.908,289.048,101.179z M108.528,104.544C95.497,86.917,64.417,57.702,45.251,40.278  c1.229,0.032,2.445,0.081,3.669,0.119c78.078,3.575,149.077,32.032,212.369,84.978C220.119,119.761,127.508,107.133,108.528,104.544  z M156.7,160.697c-4.733-6.789-11.625-15.803-18.221-23.794c32.798,1.622,142.821,7.329,143.567,7.143  c14.768,13.989,28.976,29.106,42.842,45.901L156.7,160.697z M235.954,224.657c-6.377-6.262-19.363-18.511-32.917-29.914  c0,0,135.31,14.019,136.428,13.597c10.908,14.276,20.866,28.59,31.175,44.672L235.954,224.657z M316.378,312.757  c-6.277-7.515-27.622-32.891-47.271-54.219l113.213,13.32c12.647,21.101,23.819,42.107,33.602,62.23L316.378,312.757z   M341.963,346.037l-0.441-0.883l81.814,6.818c0.351,0.029,0.697,0.027,1.041,0.011c7.263,15.829,13.63,30.913,19.147,44.833  L341.963,346.037z M456,384.967c-12.792-31.653-29.725-68.646-51.29-106.508c0.846-0.616,1.584-1.4,2.15-2.343  c0,0,10.843-18.073,17.952-29.921c11.356,17.853,25.394,51.999,31.188,67.265V384.967z"/><text x="0" y="527" fill="#000000" font-size="5px" font-weight="bold" font-family="'Helvetica Neue', Helvetica, Arial-Unicode, Arial, Sans-serif">Created by iconixar</text><text x="0" y="532" fill="#000000" font-size="5px" font-weight="bold" font-family="'Helvetica Neue', Helvetica, Arial-Unicode, Arial, Sans-serif">from the Noun Project</text></svg>