<svg xmlns="http://www.w3.org/2000/svg" viewBox="0 0 100 125" x="0px" y="0px"><path d="M79.66,19.96c.56-3.22,.46-6.53-.78-9.65-1.77-4.48-6.38-5.42-10.14-3.04-1.82,1.15-3.27,2.63-4.55,4.35-2.21,2.96-3.76,6.26-4.45,9.83-.85,4.37-2.29,8.5-4.21,12.48-.59,1.22-.62,2.26-.17,3.48,.88,2.4,1.66,4.85,2.49,7.27-.21,.11-.15,.08-.37,.19-1.43-1.97-2.87-3.93-4.33-5.94,0,0-.16,.07-.23,.18-1.15,1.99-2.31,3.98-3.43,6-.18,.32-.27,.77-.21,1.14,.36,2.27,.76,4.53,1.17,6.79,.17,.94,.39,1.88,.58,2.82-2.07-2.19-2.98-4.84-3.34-7.95-2.01,3.05-3.85,5.83-5.66,8.63-.16,.26-.22,.65-.18,.96,.11,.87,.27,1.74,.45,2.6,.35,1.66,.72,3.32,1.12,5.17-1.97-1.41-2.98-3.32-3.93-5.3-.21,.2-.34,.29-.43,.4-2.22,2.8-4.46,5.59-6.64,8.41-.2,.25-.22,.76-.14,1.09,.48,1.93,1.02,3.85,1.54,5.77-.16,.06-.1,.04-.26,.09-.78-1.74-1.56-3.47-2.31-5.12-3.32,3.09-4.06,7.12-3.48,11.56h-.39c-.26-1.39-.52-2.77-.8-4.22-.78,1.83-1.08,3-1.01,4.43,0,.05,.19,1.18,.77,2.28,.23-.3,.46-.61,.76-.84,1.93-1.51,3.96-2.9,5.85-4.45,2.27-1.86,4.48-3.8,6.66-5.77,1.83-1.65,3.64-3.33,5.34-5.11,2.27-2.4,4.53-4.84,6.6-7.42,2.14-2.66,4.2-5.42,6.02-8.31,2.16-3.42,4.03-7.02,6.01-10.55,3.41-6.08,5.82-12.57,7.71-19.24,1.08-3.83,1.78-7.8,1.73-11.84,0-.14,.04-.28,.1-.42,.09-.22,.41-.23,.5-.01,.06,.13,.07,.25,.06,.37-.27,2.54-.37,5.13-.88,7.62-1.2,5.79-3.09,11.4-5.39,16.83-3.65,8.65-8.15,16.87-13.61,24.52-3.6,5.03-7.47,9.85-11.78,14.29l-16.61,13.21h0c-1.15,.81-2.24,1.62-3.1,2.33-3.59,2.94-1.88,4.14-1.88,4.14,0,0,4.87-4.41,9.14-7.7,1.1,.1,2.78-.24,3.81-.8-.33-.13-.67-.26-1.01-.4,4.49,.02,7.73-2.37,9.68-3.77-.69-.17-1.37-.34-2.18-.54,1.59-.24,3.08-.21,4.35-.73,1.3-.53,2.38-1.58,3.81-2.58-1.05,.09-1.78,.2-2.5,.2-.66,0-1.31-.11-1.97-.17-.01-.13-.03-.26-.04-.39,5.35,.08,9.01-2.88,12.28-6.6-1.47,.16-2.88,.31-4.29,.46-.04-.18-.03-.12-.07-.3,4.73-1.83,9.18-4.03,11.54-8.77-1.12,.06-2.36,.12-3.6,.18,1.33-.63,2.69-1.04,4.03-1.49,.88-.3,1.61-.76,2.15-1.61,1.5-2.35,3.12-4.62,4.66-6.95,.54-.81,1.01-1.68,1.51-2.52-1.23,.74-2.4,1.3-3.82,1.12,.46-.48,1.04-.79,1.47-1.24,1.52-1.54,3.01-3.11,4.46-4.71,.46-.51,.91-1.11,1.13-1.75,.74-2.09,1.38-4.22,2.04-6.34,.03-.1-.11-.24-.15-.35-1.08,.93-2.06,1.89-3.17,2.68-1.08,.77-2.28,1.37-3.44,2.04-.13-.16-.09-.12-.22-.28,1.21-1.31,2.45-2.6,3.63-3.94,2.11-2.4,4.78-4.42,4.95-8.07,.09-1.81,.55-3.6,.84-5.39-.14-.07-.13-.06-.27-.13-.81,.92-1.63,1.84-2.44,2.77-.2-.15-.12-.09-.32-.24,.31-.49,.64-.97,.93-1.47,.83-1.42,2.1-2.76,2.36-4.28Z"/><text x="0" y="115" fill="#000000" font-size="5px" font-weight="bold" font-family="'Helvetica Neue', Helvetica, Arial-Unicode, Arial, Sans-serif">Created by Majide</text><text x="0" y="120" fill="#000000" font-size="5px" font-weight="bold" font-family="'Helvetica Neue', Helvetica, Arial-Unicode, Arial, Sans-serif">from the Noun Project</text></svg>