<svg xmlns="http://www.w3.org/2000/svg" data-name="Layer 1" viewBox="0 0 100 125" x="0px" y="0px"><path d="M63,30.11A33.84,33.84,0,0,0,55.6,42.35c-.18.54-.35,1.06-.51,1.57a22.7,22.7,0,0,1-5.46,3.51,13,13,0,0,0,4.61-1,34.56,34.56,0,0,1-3.7,8.08,42,42,0,0,1-4.95,1.38,19,19,0,0,0,3.92,0c-2.15,2.55-5,4.28-9.45,5.23L37,70a54.65,54.65,0,0,1,2-8.89A71.37,71.37,0,0,1,51.56,37.64c-7.76,6.26-12,17.62-13.23,21.47A23.24,23.24,0,0,1,40.6,41.74a15.72,15.72,0,0,0,.61,2.93,31.62,31.62,0,0,1,.59-4.82,23.18,23.18,0,0,1,19-9.85C61.54,30,62.28,30,63,30.11Z"/><text x="0" y="115" fill="#000000" font-size="5px" font-weight="bold" font-family="'Helvetica Neue', Helvetica, Arial-Unicode, Arial, Sans-serif">Created by hibernut</text><text x="0" y="120" fill="#000000" font-size="5px" font-weight="bold" font-family="'Helvetica Neue', Helvetica, Arial-Unicode, Arial, Sans-serif">from the Noun Project</text></svg>