<svg xmlns="http://www.w3.org/2000/svg" xmlns:xlink="http://www.w3.org/1999/xlink" xmlns:xodm="http://www.corel.com/coreldraw/odm/2003" xml:space="preserve" version="1.1" style="shape-rendering:geometricPrecision;text-rendering:geometricPrecision;image-rendering:optimizeQuality;" viewBox="0 0 846.66 1058.325" x="0px" y="0px" fill-rule="evenodd" clip-rule="evenodd"><defs><style type="text/css">
   
    .fil0 {fill:black;fill-rule:nonzero}
   
  </style></defs><g><path class="fil0" d="M83.54 771.3c22.1,-76.97 46.83,-149.44 81.14,-214.17 28.09,-299.51 290.42,-542.47 598.43,-535.83 -292.36,78.33 -159.21,422.64 -582.37,607.05 29.78,-56.54 62.28,-111.49 97.79,-165.03 66.76,-100.66 144.18,-196.34 234.2,-288.24 -143.23,117.96 -362.72,423.09 -429.19,596.22zm233.91 -0.95c69.05,37.84 152.08,70.75 290.8,-113.89 -71.52,123.86 -178.4,215.03 -307.51,144.3 -45.42,-24.89 -100.69,-55.17 -203.28,-44.38 67.74,-18.15 158.28,-19.84 219.99,13.97z"/></g><text x="0" y="861.66" fill="#000000" font-size="5px" font-weight="bold" font-family="'Helvetica Neue', Helvetica, Arial-Unicode, Arial, Sans-serif">Created by White Snow</text><text x="0" y="866.66" fill="#000000" font-size="5px" font-weight="bold" font-family="'Helvetica Neue', Helvetica, Arial-Unicode, Arial, Sans-serif">from the Noun Project</text></svg>