<svg xmlns="http://www.w3.org/2000/svg" viewBox="0 0 100 125" x="0px" y="0px"><path d="M65.18,27.5c-1.18,.18-2.34,.35-3.49,.53,.98-.89,2.02-1.57,2.99-2.33,.28-.22,.54-.69,.52-1.02-.36-5.08-1.05-10.11-2.61-14.99-.4-1.25-.91-2.47-1.36-3.7-2.46,11.06-5.61,21.78-10.09,32.09-.17,.4-.22,.9-.19,1.34,.17,2.72,.39,5.43,.59,8.15-.05,.02-.1,.04-.15,.06-.87-1.51-1.74-3.02-2.62-4.53-4.39,6.38-6.99,13.48-9.25,20.72-.12,.37-.05,.86,.08,1.24,.6,1.73,1.25,3.43,1.96,5.38-1.16-.96-2.15-1.79-3.25-2.71-.31,1.16-.63,2.25-.89,3.34-.99,4.2-1.72,8.44-1.18,12.78,.01,.09,.03,.17,.04,.25,.05,.19,.52,1.78,1.13,2.35,6.31-15.1,12.62-30.21,18.92-45.31-.22,1.27-.68,2.45-1.08,3.64-1.89,5.62-3.65,11.29-5.66,16.87-2.99,8.31-6.33,16.48-10.83,24.12,.05-.08,.09-.14,.09-.14,0,0-2.87,5.88-4.08,8.34,1.52-2.09,3.02-4.19,4.57-6.26,.36-.47,.87-.93,1.4-1.16,2.26-.97,4.39-2.11,6.34-3.91-.7-.11-1.25-.19-1.8-.27l-.11-.33c5.25-.96,7.52-5.11,9.9-9.08,3.38-5.62,5.6-11.72,7.18-18.06,.64-2.57,1.16-5.16,1.75-7.81-1.16,.14-2.11,.25-3.33,.39,1.15-.84,2.03-1.5,2.92-2.12,.56-.39,.83-.87,.88-1.58,.2-2.8,.54-5.6,.66-8.4,.12-2.62,.02-5.25,.02-7.9Z"/><text x="0" y="115" fill="#000000" font-size="5px" font-weight="bold" font-family="'Helvetica Neue', Helvetica, Arial-Unicode, Arial, Sans-serif">Created by Majide</text><text x="0" y="120" fill="#000000" font-size="5px" font-weight="bold" font-family="'Helvetica Neue', Helvetica, Arial-Unicode, Arial, Sans-serif">from the Noun Project</text></svg>