<?xml version="1.0" encoding="utf-8"?>

<!DOCTYPE svg PUBLIC "-//W3C//DTD SVG 1.1//EN" "http://www.w3.org/Graphics/SVG/1.1/DTD/svg11.dtd">
<svg version="1.1" id="Layer_1" xmlns="http://www.w3.org/2000/svg" xmlns:xlink="http://www.w3.org/1999/xlink" x="0px" y="0px"
	 viewBox="0 -16 1555 1952" enable-background="new 0 -16 1555 1952" xml:space="preserve">
<g>
	<path d="M173.75,13.77c5.13-2.24,10.81-2.7,16.33-3.04c7.35-0.16,14.72-0.33,22.05,0.26c15.48,1.94,30.53,6.21,45.45,10.62
		c41.87,12.88,82.29,29.95,122.35,47.55c49.33,22.1,97.92,45.86,145.72,71.09c11.88,6.34,23.9,12.47,35.41,19.46
		c-40.73-18.46-81.7-36.38-122.82-53.96c-33.89-14.44-67.95-28.51-102.37-41.68c-33.95-12.77-68.1-25.37-103.44-33.78
		c-13.17-2.84-26.61-5.44-40.15-4.41c21.41,11.72,43.22,23.1,62.26,38.55c26.01,20.5,47.91,47.74,56.97,80.02
		c29.37,108.39,57.86,217.02,84.22,326.19c2.64,11.09,5.39,22.17,7.69,33.34c-33.11-103.16-64.04-207.01-94.02-311.11
		c-4.45-15.31-8.74-30.66-13.31-45.93c-8.29-26.82-26.52-49.53-48.06-67.05c-16.26-13.31-34.32-24.2-52.78-34.15
		c-7.07-3.89-14.34-7.44-20.99-12.03c-3.54-2.46-6.99-6.06-6.93-10.66C167.25,18.96,170.16,15.4,173.75,13.77z"/>
	<path d="M435.96,128.99c-0.98-0.72-1.05-1.63-0.22-2.74c67.84,44.67,133.82,92.16,197.64,142.41
		c28.38,22.47,56.13,45.74,83.09,69.89c27.83,25.1,54.8101,51.24,79.35,79.6c11.76,13.77,22.96,28.04,32.76,43.28
		c8.65,13.97,16.99,28.14,26.26,41.72c28.41,42.11,61.17,81.04,90.8199,122.25c22.6,31.29,43.27,64.0699,60.27,98.75
		c30.65,62.2,47.8701,131.12,48.94,200.5c-0.48,0.03-1.45,0.08-1.9301,0.11c-6.5099-44.42-17.0299-88.39-33.3499-130.27
		c-14.84-38.43-34.31-74.97-56.77-109.46C921.98,621.91,873.02,564.4,833.79,500.2c-7.07-11.37-13.31-23.23-20.38-34.6
		c-20.96-32.52-47.16-61.25-74.15-88.82c-28.13-28.25-57.66-55.06-87.94-80.99C582.34,236.69,510.07,181.49,435.96,128.99z"/>
	<path d="M628.19,439.73c2.89-2.18,5.92-4.17,8.88-6.27c71.76,103.89,142.04,208.81,210.33,315.02
		c41.45,64.66,82.2,129.79,120.84,196.18c19.34,33.39,38.18,67.1,55.45,101.6201c18.93,38.49,36.04,77.84,52.4999,117.4399
		c31.05,74.9401,59.42,150.9401,88.0601,226.8201c1.45,3.62,0.41,7.99,2.97,11.23c3.63,3.98,4.5901,9.4299,6.6801,14.24
		c6.4299,16.9299,12.91,33.84,19.52,50.7c13.4199-0.33,26.89-0.6799,40.23-2.1599c-9.09-19.7301-17.61-39.7301-26.74-59.4501
		c-1.6901-3.0699-1.11-6.7899-2.79-9.85c-1.05-2.28-3.3099-3.6801-4.38-5.91c-27.46-59.9-55.61-119.49-84.05-178.9299
		c-6.7999-14.12-13.35-28.35-21.0199-42.02c-74.71-139.11-149.47-278.19-224.09-417.34c3.18-1.63,6.28-3.4,9.48-4.98
		c77.27,143.74,154.44,287.53,231.65,431.29c26.6001,54.96,52.6901,110.16,78.4601,165.5c8.2,17.4,15.97,35.01,24.26,52.36
		c26.1799,1.1,52.2999,3.91,78.08,8.62c16.74,3.35,33.58,7.2201,49.11,14.52c6.23,3.1,12.4401,6.91,16,13.17
		c-5.8099-8.27-15.3-12.3301-24.4301-15.67c-17.8099-6.24-36.5-9.39-55.1299-11.98c-20.5701-2.48-41.26-4.1901-61.9801-4.51
		c9.87,21.33,19.4,42.8199,28.74,64.39c24.62-2.41,49.25-5.95,73.0701-12.78c8.2999-2.5699,16.66-5.33,24.16-9.7999
		c2.6699-1.8101,5.88-3.64,6.8199-6.9501c2.84,0.24,5.67,0.5701,8.51,1.02c0-1.71,0.02-3.39,0.14-5.0601
		c0.0699,1.67,0.12,3.3501,0.16,5.0601c3.25,0.25,6.5199,0.53,9.7599,1.03c-0.5,6.12-3.9099,11.6599-8.5499,15.5499
		c-7.65,6.5-17.1801,10.14-26.5701,13.3101c-26.1899,8.23-53.62,11.61-80.88,13.87c7.29,18.17,15.5,36.09,20.6201,55.04
		c2.0699,11.88,3.6,23.88,4.0099,35.95c-0.3199,6.62-0.6699,14.22-5.88,19.0601c-4.8199,4.59-12.25,3.9199-18.0399,1.7799
		c-6.79-2.65-13.86-5.83-18.35-11.83c-6.25-8.02-10.91-17.14-15.4701-26.1901c-11.34-23.34-21.23-47.37-30.63-71.5399
		c-45.0499-1.2101-90.5299-4.05-134.25-15.75c-10.6699-3-21.3199-6.5601-30.89-12.22c-5.37-3.3701-10.89-7.6901-12.74-14.04
		c-1.79-5.85,1.04-12.09,5.4-16.01c7.2401-6.63,16.63-10.17,25.79-13.27c23.58-7.5,48.24-10.72,72.78-13.1899
		c13.48-0.9501,26.96-2.1101,40.48-2.29c-31.05-82.01-61.62-164.23-95.72-245.03c-15.14-35.6799-30.79-71.16-48.22-105.79
		C991.85,1007.43,971.76,972,951.2,936.87c-43.22-73.44-88.79-145.47-135.1-217.01C754.81,625.59,692.27,532.13,628.19,439.73
		 M1095.8101,1406c-18.9801,3.08-38.02,6.71-56.03,13.61c-7.01,2.89-14.4301,5.9501-19.45,11.87c-1.84,2.0601-1.97,5.23-0.05,7.3101
		c3.6,4.2799,8.7899,6.83,13.8199,9.08c11.42,4.91,23.59,7.76,35.74,10.26c22.55,4.23,45.4401,6.84,68.37,7.67l0.67,0.38
		c14.33,0.3099,28.6801,1.0699,43.02,0.6499c-8.6801-22.1499-17.0701-44.4099-25.54-66.64
		C1136.08,1400.92,1115.87,1403.0699,1095.8101,1406 M1199.15,1481.1899c10.96,26.9901,21.63,54.2301,35.65,79.8201
		c4.0499,6.42,7.6899,14.1,15.1599,17.13c4.03,1.6899,8.65,4.8199,13.0901,2.9399c2.98-5.1599,2.2-11.48,2.0599-17.1899
		c-0.75-7.24-1.46-14.49-2.58-21.6801c-0.67-6.98-3.26-13.5299-5.51-20.1c-4.73-13.02-10.0801-25.8099-15.42-38.58
		c-0.66-1.3101-0.91-2.9301-2.13-3.8C1226.0699,1480.86,1212.59,1480.91,1199.15,1481.1899z"/>
	<path d="M408.17,498.48c2.06,0.02,4.15-0.04,6.19,0.41c43.7,9.28,86.9,21.55,128.22,38.62c17.27,7.51,34.72,15.44,49.32,27.53
		c5.49,4.81,11.85,11.21,10.25,19.22c-1.7,7.22-9.34,10.44-15.89,11.88c-16.87,3.43-34.23,2.38-51.29,1.35
		c-36.31-2.83-72.39-8.55-107.86-16.78c43.31,1.89,86.6,6.09,130,5.37c10.62-0.89,21.84-0.33,31.75-4.9
		c-6.01-7.18-14.05-12.24-21.99-17.03c-14.26-8.23-29.26-15.08-44.35-21.64c-34.76-14.97-70.36-27.87-105.71-41.37
		C414.03,499.94,411.13,499.07,408.17,498.48z"/>
	<path d="M443.57,596.39c25.08,56.53,44.23,115.43,67.14,172.84c6.7,16.15,13.28,32.53,22.98,47.17c1.21,2.48,4.39,1.85,6.64,2.5099
		c32.77,6.4901,65.18,15.54,95.94,28.69c12.88,5.78,25.87,12.05,36.47,21.56c4.04,3.8701,8.35,8.76,7.73,14.78
		c-0.27,5.6-5.28,9.51-10.1899,11.24c-10.0601,3.38-20.83,3.42-31.33,3.38c-24.72-0.45-49.22-4.24-73.54-8.43
		c13.3,16.49,26.29,33.24,40.21,49.23c26.73,31.41,55.18,61.42,85.86,89.02c16.27,14.3,33.1,27.98,50.91,40.33
		c17.81,11.99,36.49,22.65,55.7,32.24c38.3199,19.4801,78.27,35.55,118.64,50.2301c29.71,10.7999,59.74,20.6799,89.94,30.0199
		c5.22,1.49,10.33,3.4501,15.73,4.27c-5.25,0.4-10.36-1.0599-15.51-1.77c-45.98-8.1599-91.23-20.22-135.41-35.2899
		c-37.89-13.36-75.16-28.86-110.11-48.79c-35.54-20.38-67.29-46.85-95.8-76.16c-39.01-40.22-73.03-85.31-101.15-133.78
		c-6.21-1.14-12.33-2.74-18.53-3.97c13.03-0.5,26.05,0.56,39.08,0.65c20.36,0.35,40.7401,0.98,61.09-0.2
		c6.6-0.69,13.31-1.17,19.64-3.31c0.28-1.08-0.03-1.93-0.91-2.55c-8.49-8.09-19.06-13.47-29.37-18.83
		c-30.61-15.03-62.62-26.89-94.2-39.66c-2.87-1.25-6.0699-1.73-8.6899-3.51c-10.8101-9.67-19.72-21.29-27.23-33.67
		c-18.9-31.33-32.11-65.74-42.95-100.58c-7.79-25.56-14.09-51.61-17.96-78.06C443.86,602.82,443.42,599.61,443.57,596.39z"/>
	<path d="M1127.26,750.33c4.72-1.58,9.1899,3.21,9.3099,7.7c2.6901,27.89,3.75,55.93,4.17,83.95c0.2,27.05,0.26,54.13-1.34,81.14
		c-1.4,24.89-3.63,49.82-8.6901,74.26c-2.8099,11.83-5.5499,24.17-12.73,34.24c4.92-11.19,6.28-23.47,7.46-35.52
		c2.3201-25.98,1.91-52.1,1.91-78.15c-0.35-18.04-0.89-36.06-1.15-54.09l-0.3999-0.69c-0.15-13.7-0.9601-27.39-1.54-41.08
		c-15.05,36.04-36.54,69.03-60.33,99.85c-5.8601,7.44-11.8101,14.83-18.2101,21.82c22.1801-36.47,43.99-73.42,60.3101-112.96
		c6.74-16.94,12.9199-34.4,14.5599-52.68c0.5901-7.11-0.1899-14.23,0.12-21.34C1121.76,753.85,1124.46,751.58,1127.26,750.33z"/>
	<path d="M1166.33,905.13c1.55-2.42,3.77-4.55,6.51-5.54c3.86-1.21,7.4501,2.1299,8.6901,5.54c0.7999,4.6,1.11,9.28,1.2899,13.96
		l0.38,0.64c2.9701,48.97,4.3401,98.13,1.77,147.16c-1.1799,25.63-3.38,51.29-8.24,76.52c-1.8199,8.8099-3.97,17.59-7.22,26
		c-1.6901,4.08-3.5,8.22-6.45,11.58c4.1499-7.96,5.3099-17.04,6.6699-25.79c3.51-29.59,3.04-59.45,2.88-89.2
		c-0.28-22.67-0.83-45.34-1.9299-67.99c-0.3101-8.98-0.27-18-1.3-26.93c-2.42,7.83-6.42,15.07-9.98,22.43
		c-9.6,19.09-20.9601,37.25-33.16,54.78c-10.95,15.4399-22.3099,30.6699-35.13,44.62c21.4401-35.02,42.29-70.6,58.46-108.42
		c8.26-20.26,16.15-41.33,16.6801-63.47C1166.6,915.73,1165.14,910.34,1166.33,905.13z"/>
	<path d="M1231.9,1081.8101c1.7899-6.38,12.0399-7.01,14.39-0.7101c2.6799,8.11,0.1799,16.77-1.4401,24.86
		c-3.4199,45.28-7.46,90.78-18.08,135.04c-3.6,13.0601-6.6901,26.8199-14.78,37.96c3.46-10.6899,4.8201-21.88,6.09-33
		c2.42-25.6599,4.1001-51.38,5.8401-77.09c0.6899-9.0699,1.4299-18.15,1.8199-27.24c-11.8099,16.88-25.71,32.33-41.15,45.97
		c15.9401-24.61,32.99-48.98,43.4601-76.5699C1229.83,1101.38,1229.38,1091.35,1231.9,1081.8101z"/>
	<path d="M891.45,1203.42c-0.08-3.49,0.66-7.4801,3.73-9.5801c3.1-1.0699,6.36,0.25,8.87,2.11c15.43,11.3201,33.56,17.99,51.3,24.76
		c35.66,13.1001,72.0701,24.03,108.3,35.4501c7.53,2.11,14.8099,5.1,22.5,6.63c-10.53-0.13-20.8-2.8101-31.16-4.4
		c-36.31-6.85-72.37-15.37-107.45-27.05c30.48,23.36,60.83,46.9401,92.3901,68.85c5.5599,3.9501,11.49,7.38,16.95,11.4801
		c-20.35-8.5801-39.57-19.5601-58.34-31.14c-31.34-19.48-61.58-40.72-90.75-63.3101C902.27,1212.71,896.42,1208.5601,891.45,1203.42
		z"/>
	<path d="M942.87,1276.74c4-1.85,8.04,0.92,11.16,3.25c15.9399,11.16,34.46,17.73,52.53,24.5601
		c35.22,12.7999,71.14,23.5599,106.8701,34.83c7.0099,2,13.7999,4.76,20.98,6.14c-5.4601,0.2999-10.77-1.0801-16.13-1.8
		c-35.4401-5.95-70.5701-13.85-105.03-24.08c-5.97-1.48-11.61-4.27-17.69-5.2001c0.64,0.3501,1.92,1.05,2.56,1.4
		c29.6801,23.1,59.5601,45.99,90.45,67.4401c5.5,3.53,10.64,7.7,16.6101,10.4399c-7.92-1.7999-14.91-6.3199-22.2201-9.6899
		c-35.3199-18.52-68.42-40.97-100.74-64.26c-14.5099-10.85-29.41-21.3101-42.73-33.61C939.32,1282.75,940.04,1278.96,942.87,1276.74
		z"/>
	<path d="M1293.64,1484.15c23.26,27.66,45.24,56.36,66.72,85.4199c23.52,32.1901,46.3101,64.9501,67.37,98.8301
		c16.41,26.4299,32.05,53.41,45.25,81.61c9.89,21.3199,18.85,43.33,23.23,66.52c1.5901,8.03,0.91,16.27,1.0601,24.4199
		c0.29,16.4501-10.22,32.55-25.48,38.79c-14.3101,6.14-29.7101,9.12-44.92,12.08c-32.03,5.7301-64.42,9-96.83,11.54
		c-43.9601,3.14-87.99,5.51-132.0701,5.35c-42.0699-0.21-84.1899,0.75-126.2-1.85c-24.5801-1.04-49.1-3.08-73.53-5.9
		c-22.4-2.85-44.9-6.0499-66.54-12.6699c-10.02-3.3501-20.65-7.0601-27.87-15.17c-5.61-6.24-5.51-15.22-5.78-23.09
		c0.16-21.72,6.95-42.6901,14.32-62.9c14.72-38.9301,34.47-75.71,55.14-111.75c19.22-33.28,39.88-65.72,61.25-97.66
		c17.71-26.33,35.9-52.34,54.98-77.6899c-42.55,66.7-83.83,134.36-119.85,204.86c-10.3,20.4399-20.07,41.15-28.79,62.3199
		c-7.42,18.1901-14.24,36.7101-18.45,55.9401c-2.51,12-4.38,24.52-1.95,36.71c0.59,3.37,3.93,5.11,6.6,6.74
		c8.98,4.7101,18.93,7.17,28.76,9.4501c26.92,5.75,54.39,8.2999,81.79,10.35c42.65,2.95,85.4,4.38,128.15,4.16
		c46.4,0.1699,92.78-1.2001,139.12-3.4801c34.61-2.13,69.22-4.7799,103.64-9.14c18.52-2.6,37.15-5.2699,55.09-10.7599
		c5.4501-1.89,11.34-3.63,15.4-7.9801c4.8-4.4399,7.45-10.76,8.22-17.1599c2.14-16.49-2.1-32.9501-6.75-48.66
		c-9.51-29.97-23.48-58.27-38.0499-86.04c-18.7101-35.23-39.6001-69.25-61.02-102.88
		C1349.38,1563.64,1321.9,1523.61,1293.64,1484.15z"/>
	<path d="M1210.33,1673.37c14.5701,0.09,29.25-1.9301,43.7201,0.53c19.6499,3.13,39.13,7.65,57.9199,14.24
		c8.9301,3.39,18.27,6.84,25.39,13.4299c3.53,3.15,3.6801,8.0701,3.4501,12.4601c-0.03,22.6599,0.0199,45.33-0.02,68
		c0.0299,6.0599-1.2101,12.23-4.25,17.53c-5.7101,10.5099-17.48,17.4099-29.4601,17.1c-83.0399-0.05-166.08,0.01-249.11-0.03
		c-16.63-0.1901-31.6-14.9-31.83-31.5601c-0.02-25.3899-0.01-50.7699,0-76.1499c-0.3-4.7201,3.83-7.9501,7.38-10.24
		c8.9199-5.4401,19.01-8.53,28.98-11.42c20.42-5.54,41.29-9.48,62.33-11.66C1153.3199,1674.63,1181.83,1674.05,1210.33,1673.37z"/>
</g>
</svg>
