<?xml version="1.0" encoding="UTF-8" standalone="no"?>
<!-- Created with Inkscape (http://www.inkscape.org/) -->

<svg
   xmlns:dc="http://purl.org/dc/elements/1.1/"
   xmlns:cc="http://creativecommons.org/ns#"
   xmlns:rdf="http://www.w3.org/1999/02/22-rdf-syntax-ns#"
   xmlns:svg="http://www.w3.org/2000/svg"
   xmlns="http://www.w3.org/2000/svg"
   xmlns:sodipodi="http://sodipodi.sourceforge.net/DTD/sodipodi-0.dtd"
   xmlns:inkscape="http://www.inkscape.org/namespaces/inkscape"
   width="53.424923mm"
   height="54.331081mm"
   viewBox="0 0 189.30091 192.5117"
   id="svg5835"
   version="1.1"
   inkscape:version="0.91 r13725"
   sodipodi:docname="Schreibfeder.svg">
  <defs
     id="defs5837" />
  <sodipodi:namedview
     id="base"
     pagecolor="#ffffff"
     bordercolor="#666666"
     borderopacity="1.0"
     inkscape:pageopacity="0.0"
     inkscape:pageshadow="2"
     inkscape:zoom="3.3543649"
     inkscape:cx="101.89792"
     inkscape:cy="94.301468"
     inkscape:document-units="px"
     inkscape:current-layer="layer1"
     showgrid="false"
     fit-margin-top="2"
     fit-margin-left="2"
     fit-margin-bottom="2"
     fit-margin-right="2"
     inkscape:window-width="1920"
     inkscape:window-height="1030"
     inkscape:window-x="1280"
     inkscape:window-y="0"
     inkscape:window-maximized="1" />
  <metadata
     id="metadata5840">
    <rdf:RDF>
      <cc:Work
         rdf:about="">
        <dc:format>image/svg+xml</dc:format>
        <dc:type
           rdf:resource="http://purl.org/dc/dcmitype/StillImage" />
        <dc:title></dc:title>
      </cc:Work>
    </rdf:RDF>
  </metadata>
  <g
     inkscape:label="Ebene 1"
     inkscape:groupmode="layer"
     id="layer1"
     transform="translate(-13.920968,-18.963498)">
    <g
       style="display:inline"
       id="g6843"
       transform="matrix(0.22423405,-0.05705559,0.05699237,0.22398562,-34.635874,-34.504793)">
      <path
         style="fill:none;fill-rule:evenodd;stroke:#000000;stroke-width:2.34098196px;stroke-linecap:butt;stroke-linejoin:miter;stroke-opacity:1"
         d="m -19.697975,1059.4333 c 0,0 -2.525381,-4.0406 26.7690428,-33.8401 29.2944242,-29.79954 29.2944242,-29.79954 29.2944242,-29.79954 0,0 59.093924,-44.95179 85.862968,-65.15484 26.76904,-20.20305 26.76904,-20.20305 26.76904,-20.20305 0,0 36.36549,-25.75889 81.31728,-54.04316 44.95179,-28.28427 151.01781,-82.83251 200.0102,-103.03556 48.9924,-20.20305 48.9924,-20.20305 48.9924,-20.20305 0,0 119.70308,-38.89087 164.65487,-59.599 44.95179,-20.70813 48.9924,-21.2132 48.9924,-21.2132 0,0 90.40865,-43.94164 112.63201,-57.5787 22.22335,-13.63706 22.22335,-13.63706 22.22335,-13.63706 0,0 -105.05586,64.14469 -169.20055,93.43911 -64.14469,29.29443 -64.64976,29.29443 -64.64976,29.29443 0,0 -114.65232,39.39595 -161.62441,60.60915 -46.97209,21.2132 -46.97209,21.2132 -46.97209,21.2132 0,0 -111.62186,49.49748 -195.9696,111.11678 -84.34774,61.61931 -84.34774,61.61931 -84.34774,61.61931 0,0 -52.527928,47.98228 -69.700521,70.71068 -17.172593,22.7284 -39.9010262,9.5965 -55.053314,30.3046 z"
         id="path6845"
         inkscape:connector-curvature="0" />
      <path
         style="fill:none;fill-rule:evenodd;stroke:#000000;stroke-width:2.34098196px;stroke-linecap:butt;stroke-linejoin:miter;stroke-opacity:1"
         d="m 276.70602,841.1676 c 0,0 50.07833,-8.0085 72.30168,-3.96789 22.22336,4.04061 76.7716,30.80966 117.68278,19.1929 40.91117,-11.61675 60.4824,-29.92572 60.4824,-29.92572 0,0 -40.78443,8.20744 -69.0687,3.15668 -28.28427,-5.05076 -117.74615,-19.56614 -141.98981,-9.96969"
         id="path6847"
         inkscape:connector-curvature="0"
         sodipodi:nodetypes="csscsc" />
      <path
         style="fill:none;fill-rule:evenodd;stroke:#000000;stroke-width:2.34098196px;stroke-linecap:butt;stroke-linejoin:miter;stroke-opacity:1"
         d="m 336.80387,809.00064 c 0,0 50.58963,-6.14611 95.03634,4.96556 44.44672,11.11168 84.85282,21.21321 127.7843,4.54569 42.93148,-16.66752 46.71955,-31.31472 50.76016,-32.82995 4.04061,-1.51523 -52.78046,21.2132 -112.37946,13.63705 -59.59901,-7.57614 -93.34399,-14.98232 -126.17395,-7.40618"
         id="path6849"
         inkscape:connector-curvature="0"
         sodipodi:nodetypes="cssssc" />
      <path
         style="fill:none;fill-rule:evenodd;stroke:#000000;stroke-width:2.34098196px;stroke-linecap:butt;stroke-linejoin:miter;stroke-opacity:1"
         d="m 403.55594,782.1464 c 0,0 35.35534,-5.55584 69.19545,5.55584"
         id="path6851"
         inkscape:connector-curvature="0" />
      <path
         style="fill:none;fill-rule:evenodd;stroke:#000000;stroke-width:2.34098196px;stroke-linecap:butt;stroke-linejoin:miter;stroke-opacity:1"
         d="m 413.39271,773.02796 c 0,0 21.47796,-1.48816 55.31807,3.05752 33.84011,4.54569 103.54064,21.21321 145.46197,8.5863 41.92133,-12.62691 61.57108,-38.60177 61.57108,-38.60177 0,0 -16.42286,15.63017 -84.80459,14.35811 -78.37746,-1.45801 -97.83346,-17.43122 -122.5822,-10.86523"
         id="path6853"
         inkscape:connector-curvature="0"
         sodipodi:nodetypes="csscsc" />
      <path
         style="fill:none;fill-rule:evenodd;stroke:#000000;stroke-width:2.34098196px;stroke-linecap:butt;stroke-linejoin:miter;stroke-opacity:1"
         d="m 499.51498,737.68506 c 0,0 59.09938,6.58062 93.94964,11.63138 34.85026,5.05076 86.36804,3.53553 126.77415,-21.2132 40.4061,-24.74874 36.69977,-32.13059 36.69977,-32.13059 0,0 0.17079,14.95799 -54.37744,20.00876 -54.54824,5.05076 -99.39638,-3.70612 -132.73141,-3.70612"
         id="path6855"
         inkscape:connector-curvature="0"
         sodipodi:nodetypes="csscsc" />
      <path
         style="fill:none;fill-rule:evenodd;stroke:#000000;stroke-width:2.34098196px;stroke-linecap:butt;stroke-linejoin:miter;stroke-opacity:1"
         d="m 593.9697,703.85958 c 0,0 87.37819,14.14213 135.36044,1.01015 47.98224,-13.13198 33.84011,-15.65737 52.52793,-27.27412 18.68782,-11.61675 37.27654,-44.64787 37.27654,-44.64787 0,0 -27.68009,21.41436 -80.7131,25.45497 -53.03301,4.04061 -52.37015,2.85211 -52.37015,2.85211"
         id="path6857"
         inkscape:connector-curvature="0"
         sodipodi:nodetypes="csscsc" />
      <path
         style="fill:none;fill-rule:evenodd;stroke:#000000;stroke-width:2.34098196px;stroke-linecap:butt;stroke-linejoin:miter;stroke-opacity:1"
         d="m 702.60297,652.67367 c 0,0 34.30331,2.69858 69.15358,-4.37248 34.85026,-7.07107 56.06346,-18.18275 70.71067,-30.30458 14.64722,-12.12183 41.92133,-38.3858 48.9924,-83.33759 7.07107,-44.95178 17.1726,-38.38579 -5.55584,-19.19289 -22.72843,19.19289 -43.43656,17.67767 -69.19545,31.8198 -25.75889,14.14214 -37.06592,42.64647 -45.14714,65.87998"
         id="path6859"
         inkscape:connector-curvature="0"
         sodipodi:nodetypes="csssssc" />
      <path
         style="fill:none;fill-rule:evenodd;stroke:#000000;stroke-width:2.34098196px;stroke-linecap:butt;stroke-linejoin:miter;stroke-opacity:1"
         d="m 783.13564,607.15366 c 0,0 19.79478,-49.18139 62.2528,-71.56594"
         id="path6861"
         inkscape:connector-curvature="0"
         sodipodi:nodetypes="cc" />
      <path
         style="fill:none;fill-rule:evenodd;stroke:#000000;stroke-width:2.34098196px;stroke-linecap:butt;stroke-linejoin:miter;stroke-opacity:1"
         d="m 805.59666,594.7631 c 0,0 26.26396,-42.42641 45.96194,-53.53808 19.69797,-11.11168 28.28078,-19.55587 40.54749,-31.42868"
         id="path6863"
         inkscape:connector-curvature="0"
         sodipodi:nodetypes="csc" />
      <path
         style="fill:none;fill-rule:evenodd;stroke:#000000;stroke-width:2.34098196px;stroke-linecap:butt;stroke-linejoin:miter;stroke-opacity:1"
         d="m 894.97881,516.71757 c 0,0 -9.5801,19.96176 -33.31869,34.1039 -23.73858,14.14213 -25.75889,22.22335 -30.80965,27.27411"
         id="path6865"
         inkscape:connector-curvature="0"
         sodipodi:nodetypes="csc" />
      <path
         style="fill:none;fill-rule:evenodd;stroke:#000000;stroke-width:2.34098196px;stroke-linecap:butt;stroke-linejoin:miter;stroke-opacity:1"
         d="m 766.9256,617.06034 c 0,0 18.468,-1.58911 41.70151,-5.12465 23.23351,-3.53553 35.35534,-4.54568 51.01271,-16.66751"
         id="path6867"
         inkscape:connector-curvature="0"
         sodipodi:nodetypes="csc" />
      <path
         style="fill:none;fill-rule:evenodd;stroke:#000000;stroke-width:2.34098196px;stroke-linecap:butt;stroke-linejoin:miter;stroke-opacity:1"
         d="m 799.03066,602.33925 39.39595,-8.08122 c 19.69798,-4.04062 41.41449,-21.71903 44.44494,-29.29518"
         id="path6869"
         inkscape:connector-curvature="0"
         sodipodi:nodetypes="csc" />
      <path
         style="fill:none;fill-rule:evenodd;stroke:#000000;stroke-width:2.34098196px;stroke-linecap:butt;stroke-linejoin:miter;stroke-opacity:1"
         d="m 886.15632,542.23517 c 0,0 -6.81853,21.2132 -28.28427,31.06219 -21.46574,9.84899 -40.55617,14.3139 -47.12216,18.10197"
         id="path6871"
         inkscape:connector-curvature="0"
         sodipodi:nodetypes="csc" />
      <path
         style="fill:none;fill-rule:evenodd;stroke:#000000;stroke-width:2.34098196px;stroke-linecap:butt;stroke-linejoin:miter;stroke-opacity:1"
         d="m 731.35044,642.49281 c 0,0 15.40483,-6.06092 34.34519,-4.79823 18.94036,1.2627 43.94164,-7.57614 55.81093,-12.6269"
         id="path6873"
         inkscape:connector-curvature="0" />
      <path
         style="fill:none;fill-rule:evenodd;stroke:#000000;stroke-width:2.34098196px;stroke-linecap:butt;stroke-linejoin:miter;stroke-opacity:1"
         d="m 803.84851,655.83411 c 0,0 -60.62877,17.46835 -88.15543,14.94297"
         id="path6875"
         inkscape:connector-curvature="0"
         sodipodi:nodetypes="cc" />
      <path
         style="fill:none;fill-rule:evenodd;stroke:#000000;stroke-width:2.34098196px;stroke-linecap:butt;stroke-linejoin:miter;stroke-opacity:1"
         d="m 651.54839,683.40399 c 0,0 102.21372,-2.28983 137.06398,-10.87612"
         id="path6877"
         inkscape:connector-curvature="0"
         sodipodi:nodetypes="cc" />
      <path
         style="fill:none;fill-rule:evenodd;stroke:#000000;stroke-width:2.34098196px;stroke-linecap:butt;stroke-linejoin:miter;stroke-opacity:1"
         d="m 624.77935,696.53597 c 0,0 20.70813,-0.50508 39.14341,4.54569 18.43529,5.05076 40.15356,5.80837 68.69037,-2.52538"
         id="path6879"
         inkscape:connector-curvature="0" />
      <path
         style="fill:none;fill-rule:evenodd;stroke:#000000;stroke-width:2.34098196px;stroke-linecap:butt;stroke-linejoin:miter;stroke-opacity:1"
         d="m 666.95322,693.50551 c 0,0 44.19417,4.04061 84.60027,-4.79822"
         id="path6881"
         inkscape:connector-curvature="0" />
      <path
         style="fill:none;fill-rule:evenodd;stroke:#000000;stroke-width:2.34098196px;stroke-linecap:butt;stroke-linejoin:miter;stroke-opacity:1"
         d="m 527.04709,733.154 c 0,0 37.62818,-1.01015 64.14469,3.03046 26.5165,4.04061 46.21448,9.84899 99.75256,-3.53554"
         id="path6883"
         inkscape:connector-curvature="0" />
      <path
         style="fill:none;fill-rule:evenodd;stroke:#000000;stroke-width:2.34098196px;stroke-linecap:butt;stroke-linejoin:miter;stroke-opacity:1"
         d="m 615.1829,729.871 c 0,0 17.93021,4.79823 46.71956,2.27285 28.78934,-2.52538 52.20681,-8.26328 65.40737,-13.13199 l 14.28092,-5.26717"
         id="path6885"
         inkscape:connector-curvature="0"
         sodipodi:nodetypes="cssc" />
      <path
         style="fill:none;fill-rule:evenodd;stroke:#000000;stroke-width:2.34098196px;stroke-linecap:butt;stroke-linejoin:miter;stroke-opacity:1"
         d="m 544.9773,775.58041 c 0,0 20.70813,3.03045 40.91118,2.0203 20.20305,-1.01015 43.64054,-1.38958 65.10629,-9.97588"
         id="path6887"
         inkscape:connector-curvature="0"
         sodipodi:nodetypes="csc" />
      <path
         style="fill:none;fill-rule:evenodd;stroke:#000000;stroke-width:2.34098196px;stroke-linecap:butt;stroke-linejoin:miter;stroke-opacity:1"
         d="m 545.98745,769.01442 c 0,0 -23.99112,-5.80838 -45.96194,-7.07107 -21.97082,-1.26269 -38.89087,-2.52538 -53.28555,2.52538"
         id="path6889"
         inkscape:connector-curvature="0" />
      <path
         style="fill:none;fill-rule:evenodd;stroke:#000000;stroke-width:2.34098196px;stroke-linecap:butt;stroke-linejoin:miter;stroke-opacity:1"
         d="m 414.16254,836.18956 c 0,0 17.67767,11.61675 40.91118,14.39467 23.23351,2.77792 17.5665,2.4514 22.61727,2.4514"
         id="path6891"
         inkscape:connector-curvature="0"
         sodipodi:nodetypes="csc" />
      <path
         style="fill:none;fill-rule:evenodd;stroke:#000000;stroke-width:2.34098196px;stroke-linecap:butt;stroke-linejoin:miter;stroke-opacity:1"
         d="m 488.40876,844.52332 c 0,0 -29.29443,-0.50508 -53.28555,-9.59645 -23.99112,-9.09137 -68.94291,-12.87945 -92.17642,-10.6066"
         id="path6893"
         inkscape:connector-curvature="0" />
      <path
         style="fill:none;fill-rule:evenodd;stroke:#000000;stroke-width:2.34098196px;stroke-linecap:butt;stroke-linejoin:miter;stroke-opacity:1"
         d="m 441.71981,859.26667 c 0,0 -11.64736,22.12722 -37.65879,22.63229 -26.01143,0.50508 -52.78047,-8.33376 -66.92261,-15.65736 -14.14213,-7.32361 -43.6891,-17.67767 -62.37692,-16.66752"
         id="path6895"
         inkscape:connector-curvature="0"
         sodipodi:nodetypes="cssc" />
      <path
         style="fill:none;fill-rule:evenodd;stroke:#000000;stroke-width:2.34098196px;stroke-linecap:butt;stroke-linejoin:miter;stroke-opacity:1"
         d="m 389.20264,881.24511 c 0,0 -10.39544,17.57391 -43.47793,13.02822 -33.0825,-4.54569 -85.44691,-31.15127 -109.69057,-28.87842"
         id="path6897"
         inkscape:connector-curvature="0"
         sodipodi:nodetypes="csc" />
      <path
         style="fill:none;fill-rule:evenodd;stroke:#000000;stroke-width:2.34098196px;stroke-linecap:butt;stroke-linejoin:miter;stroke-opacity:1"
         d="m 322.99628,907.15278 c 0,0 -16.66752,-11.8693 -39.64849,-16.66752 -22.98097,-4.79823 -45.42262,-18.01078 -63.10029,-14.98033"
         id="path6899"
         inkscape:connector-curvature="0"
         sodipodi:nodetypes="csc" />
      <path
         style="fill:none;fill-rule:evenodd;stroke:#000000;stroke-width:2.34098196px;stroke-linecap:butt;stroke-linejoin:miter;stroke-opacity:1"
         d="m 405.82879,865.98906 c 0,0 -12.87945,3.283 -27.52666,-1.76777 -14.64721,-5.05076 -50.50763,-21.2132 -76.01398,-19.95051"
         id="path6901"
         inkscape:connector-curvature="0" />
      <path
         style="fill:none;fill-rule:evenodd;stroke:#000000;stroke-width:2.34098196px;stroke-linecap:butt;stroke-linejoin:miter;stroke-opacity:1"
         d="m 259.08913,883.23561 c 0,0 33.09749,22.40194 36.12795,29.47301 3.03046,7.07106 -55.11797,-31.91244 -94.00884,-24.3363"
         id="path6903"
         inkscape:connector-curvature="0"
         sodipodi:nodetypes="csc" />
      <path
         style="fill:none;fill-rule:evenodd;stroke:#000000;stroke-width:2.34098196px;stroke-linecap:butt;stroke-linejoin:miter;stroke-opacity:1"
         d="m 258.34651,924.07283 c 0,0 -41.46913,-29.96503 -69.7534,-26.68203"
         id="path6905"
         inkscape:connector-curvature="0"
         sodipodi:nodetypes="cc" />
      <path
         style="fill:none;fill-rule:evenodd;stroke:#000000;stroke-width:2.34098196px;stroke-linecap:butt;stroke-linejoin:miter;stroke-opacity:1"
         d="m 242.94169,924.07283 c 0,0 -31.97697,-18.72271 -71.12038,-14.42957"
         id="path6907"
         inkscape:connector-curvature="0"
         sodipodi:nodetypes="cc" />
      <path
         style="fill:none;fill-rule:evenodd;stroke:#000000;stroke-width:2.34098196px;stroke-linecap:butt;stroke-linejoin:miter;stroke-opacity:1"
         d="m 139.94947,932.92688 c 0,0 41.37291,-10.87435 56.27266,1.50001"
         id="path6909"
         inkscape:connector-curvature="0"
         sodipodi:nodetypes="cc" />
      <path
         style="fill:none;fill-rule:evenodd;stroke:#000000;stroke-width:2.34098196px;stroke-linecap:butt;stroke-linejoin:miter;stroke-opacity:1"
         d="m 153.59287,922.95984 c 0,0 39.5988,-10.25122 58.28663,4.64853"
         id="path6911"
         inkscape:connector-curvature="0"
         sodipodi:nodetypes="cc" />
      <path
         style="fill:none;fill-rule:evenodd;stroke:#000000;stroke-width:2.34098196px;stroke-linecap:butt;stroke-linejoin:miter;stroke-opacity:1"
         d="m 392.14286,797.71935 c 0,0 26.42857,-3.21429 58.21428,8.21428 C 482.14286,817.3622 545,817.3622 570,810.57649"
         id="path6913"
         inkscape:connector-curvature="0" />
      <path
         style="fill:none;fill-rule:evenodd;stroke:#000000;stroke-width:2.34098196px;stroke-linecap:butt;stroke-linejoin:miter;stroke-opacity:1"
         d="m -13.89719,1048.9042 c 0,0 6.7543328,-7.6134 19.6114757,-7.2563 12.8571433,0.3572 17.7956583,-2.6388 21.0099433,-4.0674"
         id="path6915"
         inkscape:connector-curvature="0"
         sodipodi:nodetypes="csc" />
      <path
         style="fill:none;fill-rule:evenodd;stroke:#000000;stroke-width:2.34098196px;stroke-linecap:butt;stroke-linejoin:miter;stroke-opacity:1"
         d="m -8.0188213,1041.7636 c 0,0 8.0188213,-5.4728 18.0188213,-3.33 10,2.1429 21.457393,-4.494 24.671679,-8.4225"
         id="path6917"
         inkscape:connector-curvature="0"
         sodipodi:nodetypes="csc" />
      <path
         style="fill:none;fill-rule:evenodd;stroke:#000000;stroke-width:2.34098196px;stroke-linecap:butt;stroke-linejoin:miter;stroke-opacity:1"
         d="m -3.2165467,1036.3928 c 0,0 7.502261,-3.852 13.3951177,-2.4235 5.892858,1.4286 8.863437,0.1873 14.642858,-1.3392 4.237445,-1.1193 9.643206,-2.7511 13.988706,-7.8505"
         id="path6919"
         inkscape:connector-curvature="0"
         sodipodi:nodetypes="ccsc" />
      <path
         style="fill:none;fill-rule:evenodd;stroke:#000000;stroke-width:2.34098196px;stroke-linecap:butt;stroke-linejoin:miter;stroke-opacity:1"
         d="m 0.97119389,1031.9054 c 0,0 10.01094911,-1.6861 16.08237711,-0.9718 6.071429,0.7143 17.391078,-6.0113 24.355363,-9.2256"
         id="path6921"
         inkscape:connector-curvature="0"
         sodipodi:nodetypes="csc" />
      <path
         style="fill:none;fill-rule:evenodd;stroke:#000000;stroke-width:2.34098196px;stroke-linecap:butt;stroke-linejoin:miter;stroke-opacity:1"
         d="m 5.4386256,1027.2608 c 0,0 11.8450574,2.5555 27.0613744,-4.4522 7.470409,-3.4404 9.776781,-1.03 16.383924,-9.4228"
         id="path6923"
         inkscape:connector-curvature="0"
         sodipodi:nodetypes="csc" />
      <path
         style="fill:none;fill-rule:evenodd;stroke:#000000;stroke-width:2.34098196px;stroke-linecap:butt;stroke-linejoin:miter;stroke-opacity:1"
         d="m 637.84305,676.29279 c 0,0 3.31465,-14.28362 24.16736,-40.45678 20.85271,-26.17316 35.49992,-41.83052 54.18775,-48.90159 18.68782,-7.07107 50.25508,-15.65737 50.25508,-15.65737 0,0 -39.90102,17.42514 -56.82108,45.96195 -16.92005,28.5368 -16.8251,28.91869 -19.35048,35.98976"
         id="path6925"
         inkscape:connector-curvature="0"
         sodipodi:nodetypes="csscsc" />
      <path
         style="fill:none;fill-rule:evenodd;stroke:#000000;stroke-width:2.34098196px;stroke-linecap:butt;stroke-linejoin:miter;stroke-opacity:1"
         d="m 664.52446,664.20365 c 0,0 21.11658,-46.96465 60.51253,-75.50146"
         id="path6927"
         inkscape:connector-curvature="0"
         sodipodi:nodetypes="cc" />
      <path
         style="fill:none;fill-rule:evenodd;stroke:#000000;stroke-width:2.34098196px;stroke-linecap:butt;stroke-linejoin:miter;stroke-opacity:1"
         d="m 766.45324,571.27705 c 0,0 4.16674,-0.5942 13.13199,-3.28299 9.63028,-2.88824 15.3944,-5.56654 22.21292,-9.60715"
         id="path6929"
         inkscape:connector-curvature="0"
         sodipodi:nodetypes="csc" />
      <path
         style="fill:none;fill-rule:evenodd;stroke:#000000;stroke-width:2.34098196px;stroke-linecap:butt;stroke-linejoin:miter;stroke-opacity:1"
         d="m 784.88853,569.76183 c 0,0 -27.85656,31.28367 -37.70555,55.77987"
         id="path6931"
         inkscape:connector-curvature="0"
         sodipodi:nodetypes="cc" />
      <path
         style="fill:none;fill-rule:evenodd;stroke:#000000;stroke-width:2.34098196px;stroke-linecap:butt;stroke-linejoin:miter;stroke-opacity:1"
         d="m 765.69563,576.58036 c 0,0 -18.18275,14.14213 -32.82996,37.62818 -14.64721,23.48604 -14.14954,25.50088 -14.14954,25.50088"
         id="path6933"
         inkscape:connector-curvature="0"
         sodipodi:nodetypes="csc" />
      <path
         style="fill:none;fill-rule:evenodd;stroke:#000000;stroke-width:2.34098196px;stroke-linecap:butt;stroke-linejoin:miter;stroke-opacity:1"
         d="m 700.8257,648.50454 c 0,0 15.53627,-33.12967 42.30532,-48.78703"
         id="path6935"
         inkscape:connector-curvature="0"
         sodipodi:nodetypes="cc" />
      <path
         style="fill:none;fill-rule:evenodd;stroke:#000000;stroke-width:2.34098196px;stroke-linecap:butt;stroke-linejoin:miter;stroke-opacity:1"
         d="m 681.60043,596.78341 c 0,0 -97.73226,30.30457 -112.37947,38.38579 -14.64721,8.08122 -69.12964,41.75039 -87.05984,97.05624"
         id="path6937"
         inkscape:connector-curvature="0"
         sodipodi:nodetypes="csc" />
      <path
         style="fill:none;fill-rule:evenodd;stroke:#000000;stroke-width:2.34098196px;stroke-linecap:butt;stroke-linejoin:miter;stroke-opacity:1"
         d="m 506.83823,724.04324 c 0,0 7.07688,-18.16336 22.73424,-34.07326"
         id="path6939"
         inkscape:connector-curvature="0"
         sodipodi:nodetypes="cc" />
      <path
         style="fill:none;fill-rule:evenodd;stroke:#000000;stroke-width:2.34098196px;stroke-linecap:butt;stroke-linejoin:miter;stroke-opacity:1"
         d="m 583.17301,629.31659 c 0,0 -54.86323,36.66227 -74.81374,73.2803"
         id="path6941"
         inkscape:connector-curvature="0"
         sodipodi:nodetypes="cc" />
      <path
         style="fill:none;fill-rule:evenodd;stroke:#000000;stroke-width:2.34098196px;stroke-linecap:butt;stroke-linejoin:miter;stroke-opacity:1"
         d="m 643.11305,608.98175 c 0,0 -72.12432,42.34989 -106.46951,99.92859"
         id="path6943"
         inkscape:connector-curvature="0"
         sodipodi:nodetypes="cc" />
      <path
         style="fill:none;fill-rule:evenodd;stroke:#000000;stroke-width:2.34098196px;stroke-linecap:butt;stroke-linejoin:miter;stroke-opacity:1"
         d="m 576.20338,700.04996 c 0,0 37.70252,-60.64932 78.36116,-94.74197"
         id="path6945"
         inkscape:connector-curvature="0"
         sodipodi:nodetypes="cc" />
      <path
         style="fill:none;fill-rule:evenodd;stroke:#000000;stroke-width:2.34098196px;stroke-linecap:butt;stroke-linejoin:miter;stroke-opacity:1"
         d="m 633.32519,678.22521 c 0,0 13.93005,-53.91514 48.27524,-81.4418"
         id="path6947"
         inkscape:connector-curvature="0"
         sodipodi:nodetypes="cc" />
      <path
         style="fill:none;fill-rule:evenodd;stroke:#000000;stroke-width:2.34098196px;stroke-linecap:butt;stroke-linejoin:miter;stroke-opacity:1"
         d="m 635.63849,632.89636 c 0,0 -22.58499,19.57262 -31.67637,56.94827"
         id="path6949"
         inkscape:connector-curvature="0"
         sodipodi:nodetypes="cc" />
      <path
         style="fill:none;fill-rule:evenodd;stroke:#000000;stroke-width:2.34098196px;stroke-linecap:butt;stroke-linejoin:miter;stroke-opacity:1"
         d="m 594.04664,693.54981 c 0,0 9.10838,-25.90009 24.00813,-38.27446"
         id="path6951"
         inkscape:connector-curvature="0"
         sodipodi:nodetypes="cc" />
      <path
         style="fill:none;fill-rule:evenodd;stroke:#000000;stroke-width:2.34098196px;stroke-linecap:butt;stroke-linejoin:miter;stroke-opacity:1"
         d="m 546.23999,675.07023 c 0,0 28.91249,-31.7028 63.76275,-55.18885"
         id="path6953"
         inkscape:connector-curvature="0"
         sodipodi:nodetypes="cc" />
      <path
         style="fill:none;fill-rule:evenodd;stroke:#000000;stroke-width:2.34098196px;stroke-linecap:butt;stroke-linejoin:miter;stroke-opacity:1"
         d="m 399.73162,766.91614 c 35.1028,-87.3782 127.82055,-119.37257 127.82055,-119.37257 0,0 2.52538,5.3033 -10.85914,15.40483 -13.38452,10.10152 -75.8369,52.45229 -81.89781,88.56525"
         id="path6955"
         inkscape:connector-curvature="0"
         sodipodi:nodetypes="ccsc" />
      <path
         style="fill:none;fill-rule:evenodd;stroke:#000000;stroke-width:2.34098196px;stroke-linecap:butt;stroke-linejoin:miter;stroke-opacity:1"
         d="m 446.47147,746.6987 c 0,0 30.4468,-46.6272 70.8529,-78.69954"
         id="path6957"
         inkscape:connector-curvature="0"
         sodipodi:nodetypes="cc" />
      <path
         style="fill:none;fill-rule:evenodd;stroke:#000000;stroke-width:2.34098196px;stroke-linecap:butt;stroke-linejoin:miter;stroke-opacity:1"
         d="m 477.43104,716.5588 c 0,0 -7.07106,6.06092 -12.37436,22.4759"
         id="path6959"
         inkscape:connector-curvature="0"
         sodipodi:nodetypes="cc" />
      <path
         style="fill:none;fill-rule:evenodd;stroke:#000000;stroke-width:2.34098196px;stroke-linecap:butt;stroke-linejoin:miter;stroke-opacity:1"
         d="m 417.10124,759.02417 c 0,0 11.45598,-42.03261 52.87223,-72.84226"
         id="path6961"
         inkscape:connector-curvature="0"
         sodipodi:nodetypes="cc" />
      <path
         style="fill:none;fill-rule:evenodd;stroke:#000000;stroke-width:2.34098196px;stroke-linecap:butt;stroke-linejoin:miter;stroke-opacity:1"
         d="m 501.15679,659.63867 c 0,0 -44.3153,8.36049 -67.80135,30.07877 -23.48604,21.71828 -76.19865,55.43865 -97.91693,108.7242"
         id="path6963"
         inkscape:connector-curvature="0"
         sodipodi:nodetypes="csc" />
      <path
         style="fill:none;fill-rule:evenodd;stroke:#000000;stroke-width:2.34098196px;stroke-linecap:butt;stroke-linejoin:miter;stroke-opacity:1"
         d="m 349.64138,791.24242 c 0,0 21.0846,-47.73436 75.88538,-88.64553"
         id="path6965"
         inkscape:connector-curvature="0"
         sodipodi:nodetypes="cc" />
      <path
         style="fill:none;fill-rule:evenodd;stroke:#000000;stroke-width:2.34098196px;stroke-linecap:butt;stroke-linejoin:miter;stroke-opacity:1"
         d="m 381.9068,775.35524 c 0,0 36.29635,-65.93982 57.7621,-83.87003"
         id="path6967"
         inkscape:connector-curvature="0"
         sodipodi:nodetypes="cc" />
      <path
         style="fill:none;fill-rule:evenodd;stroke:#000000;stroke-width:2.34098196px;stroke-linecap:butt;stroke-linejoin:miter;stroke-opacity:1"
         d="m 433.35544,689.71744 c 0,0 -23.99112,0.50508 -62.88199,18.68782 -38.89088,18.18275 -109.60155,72.98352 -122.73354,98.23734 -13.13198,25.25381 -20.09522,30.34739 -26.66121,55.60121"
         id="path6969"
         inkscape:connector-curvature="0"
         sodipodi:nodetypes="cssc" />
      <path
         style="fill:none;fill-rule:evenodd;stroke:#000000;stroke-width:2.34098196px;stroke-linecap:butt;stroke-linejoin:miter;stroke-opacity:1"
         d="m 235.80055,852.99485 c 0,0 18.00028,-52.41317 51.33531,-80.4449"
         id="path6971"
         inkscape:connector-curvature="0"
         sodipodi:nodetypes="cc" />
      <path
         style="fill:none;fill-rule:evenodd;stroke:#000000;stroke-width:2.34098196px;stroke-linecap:butt;stroke-linejoin:miter;stroke-opacity:1"
         d="m 285.81828,824.53878 c 0,0 42.4813,-80.77818 93.24146,-113.86067"
         id="path6973"
         inkscape:connector-curvature="0"
         sodipodi:nodetypes="cc" />
      <path
         style="fill:none;fill-rule:evenodd;stroke:#000000;stroke-width:2.34098196px;stroke-linecap:butt;stroke-linejoin:miter;stroke-opacity:1"
         d="m 409.8595,709.47817 c 0,0 -76.36379,41.11339 -98.08207,101.21747"
         id="path6975"
         inkscape:connector-curvature="0"
         sodipodi:nodetypes="cc" />
      <path
         style="fill:none;fill-rule:evenodd;stroke:#000000;stroke-width:2.34098196px;stroke-linecap:butt;stroke-linejoin:miter;stroke-opacity:1"
         d="m 311.37952,760.17558 c 0,0 -34.14327,22.8628 -48.2854,76.90597"
         id="path6977"
         inkscape:connector-curvature="0"
         sodipodi:nodetypes="cc" />
      <path
         style="fill:none;fill-rule:evenodd;stroke:#000000;stroke-width:2.34098196px;stroke-linecap:butt;stroke-linejoin:miter;stroke-opacity:1"
         d="m 250.93895,801.45727 c 0,0 9.17533,-18.55326 17.00401,-25.37179 0,0 -32.07234,8.33376 -49.24493,44.69925 -17.1726,36.3655 -18.58196,47.25406 -20.60227,56.34543"
         id="path6979"
         inkscape:connector-curvature="0"
         sodipodi:nodetypes="ccsc" />
      <path
         style="fill:none;fill-rule:evenodd;stroke:#000000;stroke-width:2.34098196px;stroke-linecap:butt;stroke-linejoin:miter;stroke-opacity:1"
         d="m 207.91266,870.71661 c 0,0 10.15402,-40.4617 34.52395,-69.62985"
         id="path6981"
         inkscape:connector-curvature="0"
         sodipodi:nodetypes="cc" />
      <path
         style="fill:none;fill-rule:evenodd;stroke:#000000;stroke-width:2.34098196px;stroke-linecap:butt;stroke-linejoin:miter;stroke-opacity:1"
         d="m 207.49322,846.17809 c 0,0 3.37612,-25.14082 11.20481,-37.76773 0,0 -29.45235,29.73861 -33.33504,57.32616 l -3.081,21.89134"
         id="path6983"
         inkscape:connector-curvature="0"
         sodipodi:nodetypes="ccsc" />
      <path
         style="fill:none;fill-rule:evenodd;stroke:#000000;stroke-width:2.34098196px;stroke-linecap:butt;stroke-linejoin:miter;stroke-opacity:1"
         d="m 188.89233,883.21497 c 0,0 4.55188,-13.94291 8.33995,-31.11551"
         id="path6985"
         inkscape:connector-curvature="0"
         sodipodi:nodetypes="cc" />
      <path
         style="fill:none;fill-rule:evenodd;stroke:#000000;stroke-width:2.34098196px;stroke-linecap:butt;stroke-linejoin:miter;stroke-opacity:1"
         d="m 173.71068,893.40307 c 0,0 8.62185,-27.0352 8.87439,-43.95526"
         id="path6987"
         inkscape:connector-curvature="0"
         sodipodi:nodetypes="cc" />
      <path
         style="fill:none;fill-rule:evenodd;stroke:#000000;stroke-width:2.34098196px;stroke-linecap:butt;stroke-linejoin:miter;stroke-opacity:1"
         d="m 156.8145,904.97488 c 2.55942,-3.21543 13.14367,-16.25739 18.6995,-42.52135"
         id="path6989"
         inkscape:connector-curvature="0"
         sodipodi:nodetypes="cc" />
    </g>
  </g>
</svg>
