<svg xmlns="http://www.w3.org/2000/svg" width="226.772" height="770.444" viewBox="76.712 52.802 170.079 577.833"><g stroke="#000" stroke-miterlimit="10" stroke-width=".4" transform="matrix(.99626 0 0 -.99626 76.712 109.495)"><path stroke="none" d="M0 0v56.905h56.905V0Zm56.905 56.905"/><clipPath id="a"><path d="M0 0v56.905h56.905V0Zm56.905 56.905"/></clipPath><g clip-path="url(#a)"><g transform="rotate(90 0 28.453)scale(1.134)"><linearGradient id="b" gradientTransform="rotate(90)"><stop offset="0" stop-color="#00f"/><stop offset=".25" stop-color="#00f"/><stop offset=".5" stop-color="purple"/><stop offset=".75" stop-color="red"/><stop offset="1" stop-color="red"/></linearGradient><path stroke="none" d="M0 0h100.375v100.375H0z" style="fill:url(#b);stroke:none" transform="translate(-50.188 -50.188)"/></g></g><path stroke="none" d="M56.905 0v56.905h56.906V0Zm56.906 56.905"/><clipPath id="c"><path d="M56.905 0v56.905h56.906V0Zm56.906 56.905"/></clipPath><g clip-path="url(#c)"><g transform="rotate(90 28.453 56.905)scale(1.134)"><linearGradient id="d" gradientTransform="rotate(90)"><stop offset="0" stop-color="#0f0"/><stop offset=".25" stop-color="#0f0"/><stop offset=".5" stop-color="teal"/><stop offset=".75" stop-color="#00f"/><stop offset="1" stop-color="#00f"/></linearGradient><path stroke="none" d="M0 0h100.375v100.375H0z" style="fill:url(#d);stroke:none" transform="translate(-50.188 -50.188)"/></g></g><path stroke="none" d="M113.811 0v56.905h56.905V0Zm56.905 56.905"/><clipPath id="e"><path d="M113.811 0v56.905h56.905V0Zm56.905 56.905"/></clipPath><g clip-path="url(#e)"><g transform="rotate(90 56.905 85.358)scale(1.134)"><linearGradient id="f" gradientTransform="rotate(90)"><stop offset="0" stop-color="red"/><stop offset=".25" stop-color="red"/><stop offset=".5" stop-color="olive"/><stop offset=".75" stop-color="#0f0"/><stop offset="1" stop-color="#0f0"/></linearGradient><path stroke="none" d="M0 0h100.375v100.375H0z" style="fill:url(#f);stroke:none" transform="translate(-50.188 -50.188)"/></g></g></g><text x="231.133" y="630.635" style="font-family:cmr10;font-size:9.96264px">1</text></svg>