<svg xmlns="http://www.w3.org/2000/svg" width="148.464" height="157.235" viewBox="-72 -72 111.348 117.926"><path fill="red" fill-opacity=".5" d="M38.95-13.035c0-18.79-15.227-34.02-34.016-34.02-18.786 0-34.016 15.23-34.016 34.02 0 18.785 15.23 34.016 34.016 34.016 18.789 0 34.015-15.231 34.015-34.016"/><path fill="none" stroke="#000" stroke-miterlimit="10" stroke-width=".797" d="M38.95-13.035c0-18.79-15.227-34.02-34.016-34.02-18.786 0-34.016 15.23-34.016 34.02 0 18.785 15.23 34.016 34.016 34.016 18.789 0 34.015-15.231 34.015-34.016Z"/><path fill="#0f0" fill-opacity=".5" d="M-3.57-37.586c0-18.785-15.23-34.016-34.016-34.016s-34.016 15.23-34.016 34.016S-56.372-3.57-37.586-3.57-3.57-18.8-3.57-37.586"/><path fill="none" stroke="#000" stroke-miterlimit="10" stroke-width=".797" d="M-3.57-37.586c0-18.785-15.23-34.016-34.016-34.016s-34.016 15.23-34.016 34.016S-56.372-3.57-37.586-3.57-3.57-18.8-3.57-37.586Z"/><path fill="#00f" fill-opacity=".5" d="M-3.57 11.512c0-18.785-15.23-34.016-34.016-34.016s-34.016 15.23-34.016 34.016c0 18.789 15.23 34.015 34.016 34.015S-3.57 30.301-3.57 11.512"/><path fill="none" stroke="#000" stroke-miterlimit="10" stroke-width=".797" d="M-3.57 11.512c0-18.785-15.23-34.016-34.016-34.016s-34.016 15.23-34.016 34.016c0 18.789 15.23 34.015 34.016 34.015S-3.57 30.301-3.57 11.512Z"/></svg>