<?xml version="1.0" encoding="UTF-8" standalone="no"?>
<!DOCTYPE svg PUBLIC "-//W3C//DTD SVG 1.1//EN" "http://www.w3.org/Graphics/SVG/1.1/DTD/svg11.dtd">
<svg width="100%" height="100%" viewBox="0 0 1280 320" version="1.1" xmlns="http://www.w3.org/2000/svg" xmlns:xlink="http://www.w3.org/1999/xlink" xml:space="preserve" xmlns:serif="http://www.serif.com/" style="fill-rule:evenodd;clip-rule:evenodd;stroke-miterlimit:10;">
    <g transform="matrix(0.984127,0,0,0.984127,59.5181,4.74147)">
        <g transform="matrix(1.04668e-05,0,0,1.04668e-05,582.122,159.746)">
            <path d="M0,122c60,-108 97,-116 101,-120c4,4 -69,5 3,23c-55,2 -6,0 11,-4c-61,49 -54,67 -27,-21c-18,66 -18,69 25,6c-24,41 2,35 -61,39c5,-10 33,-7 24,-8c-8,-25 3,-27 -25,-21c68,45 -17,44 14,41c0,-2 23,14 40,-34c-7,13 -39,21 -22,43c-5,-9 -14,-22 -32,-15c63,-49 62,24 60,-41c-56,43 -28,57 -46,27c53,15 38,2 54,-4c-62,-17 -71,0 -3,17c-34,-25 1,2 -4,-40c-28,34 -12,3 -37,24c-20,-21 -20,21 -20,-19c26,-4 56,9 -8,31c4,33 29,10 56,-44c-1,63 -36,34 -48,20c-6,-4 66,23 -12,-9c25,5 79,21 72,-13c7,45 -61,46 -38,66c-8,-22 -11,-59 -7,-20c52,-10 38,-13 18,6c24,-31 25,-27 -45,16c54,11 72,-44 66,5c9,-52 -52,-66 -55,-8c29,-31 26,-21 57,-20c-33,-6 -4,-24 1,-40c-28,52 -64,44 2,4c-47,45 -42,48 -28,65c-9,-71 -37,-37 34,-55c-47,2 -68,-15 -48,-5c50,36 -15,56 -7,-1c-16,57 48,-8 -12,-10c54,12 17,17 -5,12c54,37 21,51 4,-4c35,2 58,8 -1,26c32,12 16,-5 35,-14c-2,32 -10,31 36,26c-18,-36 -74,1 -40,-45c29,-4 -12,7 18,18c-19,25 19,-4 -21,19c5,-21 22,-31 8,-26c-12,58 -17,38 -37,56c20,-18 25,-30 -2,-31c1,34 18,33 4,-24c45,41 34,-16 -9,34c14,-2 44,-2 30,1c2,-17 -4,14 -17,3c-2,-38 33,-31 56,-53c-45,40 1,31 -1,44c-13,29 8,-28 -43,9c34,-39 1,19 31,-37c-9,2 -45,-2 -2,52c6,-36 24,-68 -20,-35c-27,19 33,-25 10,13c-4,-31 -19,18 2,-35c-34,56 -40,39 -32,13c33,-4 46,-13 56,-1c-23,18 -2,14 -56,10c45,40 -5,3 29,22c25,-56 21,-32 -14,-50c36,50 10,44 -19,2c46,63 16,67 -6,-8c54,16 60,13 6,75c-3,-20 60,-74 67,-25c-35,-7 0,17 -35,-18c-12,14 -13,41 -7,43c30,-66 -1,0 -25,-19c58,-23 52,-45 54,-42c1,37 1,-9 -60,65c66,-79 22,-57 40,-42c24,0 -37,30 28,-20c-28,18 -7,23 0,30c-42,-25 -36,-29 -47,-12c54,-26 -18,-26 16,20c-33,12 26,11 -10,-35c28,30 40,0 -7,54c33,-40 45,-74 -16,-23c53,-31 57,-3 59,-15c11,2 -58,33 -37,13c26,-34 1,2 28,-34c-17,10 -46,34 -23,6c29,20 4,-11 -23,27c20,23 52,-36 17,19c13,4 18,-1 16,-35c12,14 34,-28 -2,-23c14,26 36,-4 35,30c-54,-29 0,26 -45,30c9,5 40,-32 -11,-8c-5,14 43,-36 51,-40c4,-4 0,39 -116,101Z" style="fill:#f0f1f1;fill-rule:nonzero;stroke:#000;stroke-opacity:0;stroke-width:9708.16px;"/>
        </g>
        <g transform="matrix(10.4668,0,0,10.4668,-14.4832,-83.9763)">
            <path d="M16.585,24.394c-0,-2.294 -1.291,-3.8 -1.721,-4.266c-1.47,-1.434 -2.437,-1.684 -5.233,-2.33l-2.904,-0.645c-1.505,-0.431 -2.867,-1.684 -2.867,-3.37c-0,-1.829 1.756,-3.549 4.301,-3.549c4.23,0 4.767,3.37 4.983,4.481c0.108,0.788 0.502,1.004 1.219,1.004c1.254,-0 1.254,-0.754 1.254,-1.469l0,-4.733c0,-0.573 0,-1.469 -1.076,-1.469c-0.86,0 -1.039,0.61 -1.325,1.685c-1.47,-1.255 -3.406,-1.685 -5.019,-1.685c-3.98,0 -6.667,2.831 -6.667,5.878c-0,2.402 1.648,4.768 4.623,5.628l4.122,0.968c1.005,0.215 3.98,0.932 3.98,4.051c-0,1.863 -1.542,3.978 -4.374,3.978c-1.003,0 -2.759,-0.143 -4.193,-1.111c-1.505,-0.968 -1.649,-2.473 -1.685,-3.118c-0.036,-0.61 -0.072,-1.255 -1.218,-1.255c-1.255,-0 -1.255,0.753 -1.255,1.47l-0,4.732c-0,0.573 -0,1.468 1.075,1.468c0.789,0 1.003,-0.501 1.326,-1.648c1.435,1.075 3.621,1.648 5.915,1.648c4.157,0 6.739,-3.153 6.739,-6.343" style="fill:#f0f1f1;fill-rule:nonzero;"/>
        </g>
        <g transform="matrix(10.4668,0,0,10.4668,-14.4832,-29.5663)">
            <path d="M35.674,9.301c-0,-1.075 -1.041,-1.075 -1.578,-1.075l-2.402,0c-0.573,0 -1.577,0 -1.577,1.111c0,0.18 0,1.075 1.291,1.075l-4.052,12.224l-4.085,-12.188c0.789,0 1.29,-0.501 1.29,-1.111c0,-1.111 -1.003,-1.111 -1.576,-1.111l-2.402,0c-0.537,0 -1.578,0 -1.578,1.075c-0,1.111 0.969,1.111 1.65,1.111l4.086,12.116l0.609,1.756c0.358,1.077 1.255,1.077 1.972,1.077c1.003,-0 1.649,-0 2.114,-1.363l4.588,-13.586c0.681,0 1.65,0 1.65,-1.111" style="fill:#f0f1f1;fill-rule:nonzero;"/>
        </g>
        <g transform="matrix(10.4668,0,0,10.4668,-14.4832,-31.8231)">
            <path d="M53.974,23.855l-0,-2.186c-0,-0.61 -0,-1.505 -1.219,-1.505c-1.255,-0 -1.255,0.859 -1.255,1.505l0,1.506l-9.14,-0l-0,-5.484l4.445,-0c-0,0.681 -0,1.54 1.255,1.54c1.218,0 1.218,-0.895 1.218,-1.505l0,-2.259c0,-0.609 0,-1.505 -1.218,-1.505c-1.255,0 -1.255,0.86 -1.255,1.541l-4.445,0l-0,-4.875l8.387,-0l0,1.077c0,0.609 0,1.504 1.219,1.504c1.255,0 1.255,-0.861 1.255,-1.504l-0,-1.758c-0,-1.183 -0.288,-1.505 -1.507,-1.505l-12.186,0c-0.503,0 -1.506,0 -1.506,1.075c0,1.111 0.861,1.111 1.864,1.111l0,12.547c-1.003,-0 -1.864,-0 -1.864,1.111c0,1.075 1.003,1.075 1.506,1.075l12.939,-0c1.183,-0 1.507,-0.288 1.507,-1.506" style="fill:#f0f1f1;fill-rule:nonzero;"/>
        </g>
        <g transform="matrix(10.4668,0,0,10.4668,-14.4832,-31.8231)">
            <path d="M71.672,23.855l0,-2.186c0,-0.646 0,-1.505 -1.219,-1.505c-1.254,-0 -1.254,0.823 -1.254,1.505l-0,1.506l-8.246,-0l0,-12.547l1.077,0c0.466,0 1.505,0 1.505,-1.075c-0,-1.111 -1.039,-1.111 -1.505,-1.111l-4.088,0c-0.501,0 -1.504,0 -1.504,1.075c-0,1.111 0.823,1.111 2.042,1.111l-0,12.547c-1.219,-0 -2.042,-0 -2.042,1.111c-0,1.075 1.003,1.075 1.504,1.075l12.224,-0c1.183,-0 1.506,-0.288 1.506,-1.506" style="fill:#f0f1f1;fill-rule:nonzero;"/>
        </g>
        <g transform="matrix(10.4668,0,0,10.4668,-14.4832,-83.9768)">
            <path d="M87.417,12.528l0,-2.616c0,-1.111 -0.215,-1.47 -1.434,-1.47l-14.016,0c-1.182,0 -1.47,0.288 -1.47,1.47l0,2.616c0,0.681 0,1.47 1.219,1.47c1.255,0 1.255,-0.753 1.255,-1.47l-0,-1.899l4.768,0l0,17.529l-1.864,-0c-0.539,-0 -1.434,-0 -1.434,1.075c-0,1.111 0.861,1.111 1.434,1.111l6.2,-0c0.538,-0 1.435,-0 1.435,-1.075c-0,-1.111 -0.861,-1.111 -1.435,-1.111l-1.864,-0l0,-17.529l4.733,0l-0,1.899c-0,0.681 -0,1.47 1.219,1.47c1.254,0 1.254,-0.753 1.254,-1.47" style="fill:#f0f1f1;fill-rule:nonzero;"/>
        </g>
        <g transform="matrix(10.4668,0,0,10.4668,-14.4832,79.3045)">
            <path d="M100.06,21.073l-0,-3.189c-0,-0.681 -0,-1.47 -1.219,-1.47c-1.255,-0 -1.255,0.753 -1.255,1.47l0,2.474l-9.57,-0l-0,-8.066l4.695,-0c0,1.469 0,2.044 1.255,2.044c1.219,-0 1.219,-0.789 1.219,-1.471l-0,-3.334c-0,-0.68 -0,-1.469 -1.219,-1.469c-1.255,0 -1.255,0.574 -1.255,2.044l-4.695,0l-0,-7.277l8.783,0l-0,1.899c-0,0.681 -0,1.47 1.218,1.47c1.255,0 1.255,-0.753 1.255,-1.47l0,-2.616c0,-1.111 -0.216,-1.47 -1.434,-1.47l-13.371,-0c-0.537,-0 -1.47,-0 -1.47,1.075c0,1.112 0.933,1.112 1.47,1.112l1.075,0l0,17.529l-1.075,-0c-0.573,-0 -1.47,-0 -1.47,1.111c0,1.075 0.933,1.075 1.47,1.075l14.16,-0c1.183,-0 1.433,-0.322 1.433,-1.471" style="fill:#f0f1f1;fill-rule:nonzero;"/>
        </g>
        <g transform="matrix(10.4668,0,0,10.4668,-14.4832,-83.9768)">
            <path d="M113.946,29.269c-0,-1.111 -0.933,-1.111 -1.471,-1.111l-0.825,-0l-5.053,-9.5l4.05,-8.029l0.789,0c0.538,0 1.469,0 1.469,-1.076c-0,-1.111 -0.931,-1.111 -1.469,-1.111l-3.728,0c-0.537,0 -1.434,0 -1.434,1.075c-0,1.113 0.825,1.113 1.65,1.113l-2.545,5.232l-2.761,-5.232c0.717,-0 1.542,-0 1.542,-1.113c-0,-1.075 -0.897,-1.075 -1.435,-1.075l-3.728,0c-0.537,0 -1.469,0 -1.469,1.075c0,1.113 0.932,1.113 1.469,1.113l0.825,-0l4.302,8.064l-4.768,9.464l-0.789,-0c-0.573,-0 -1.434,-0 -1.434,1.111c0,1.075 0.897,1.075 1.434,1.075l3.729,-0c0.537,-0 1.468,-0 1.468,-1.075c-0,-1.111 -0.859,-1.111 -1.684,-1.111l3.299,-6.955l3.548,6.955c-0.825,-0 -1.613,-0 -1.613,1.111c-0,1.075 0.896,1.075 1.433,1.075l3.728,-0c0.538,-0 1.471,-0 1.471,-1.075" style="fill:#f0f1f1;fill-rule:nonzero;"/>
        </g>
    </g>
</svg>
