<?xml version="1.0" encoding="UTF-8" standalone="no"?><!DOCTYPE svg PUBLIC "-//W3C//DTD SVG 1.1//EN" "http://www.w3.org/Graphics/SVG/1.1/DTD/svg11.dtd"><svg width="100%" height="100%" viewBox="0 0 845 845" version="1.1" xmlns="http://www.w3.org/2000/svg" xmlns:xlink="http://www.w3.org/1999/xlink" xml:space="preserve" xmlns:serif="http://www.serif.com/" style="fill-rule:evenodd;clip-rule:evenodd;stroke-linejoin:round;stroke-miterlimit:2;"><g><g><path d="M357.5,793.67c-93.632,22.226 -198.47,-14.813 -257.805,-99.5c-35.246,-49.481 -49.48,-111.839 -38.635,-172.164c4.744,-28.468 15.589,-55.581 31.857,-79.982c-23.724,-44.057 -31.18,-94.893 -22.368,-144.373c10.167,-58.97 45.413,-111.161 96.249,-143.018l186.398,-119.295c105.738,-67.103 252.823,-35.924 326.704,70.492c35.924,49.481 50.158,111.839 38.635,172.842c-4.744,28.468 -15.589,55.58 -31.857,79.982c23.723,44.057 31.179,94.893 22.368,144.373c-4.01,23.256 -11.92,45.457 -23.148,65.773l-126.688,0l-153.91,-12l-57.8,36.8l10,102.238l-0,97.832Z" style="fill:#ff3e00;"/><path d="M357.5,695.838c-7.224,3.368 -14.803,6.158 -22.605,8.499c-60.325,15.589 -123.362,-8.134 -158.608,-58.97c-21.69,-29.823 -29.823,-67.103 -23.723,-103.705c1.355,-6.1 2.711,-11.522 4.067,-17.623l3.389,-10.845l9.489,6.778c22.368,16.268 46.769,28.468 73.204,36.602l6.778,2.034l-0.678,6.778c-0.678,9.489 2.033,19.656 7.456,27.79c10.845,15.589 29.823,23.045 48.124,18.301c4.067,-1.356 8.134,-2.712 11.523,-4.745l185.72,-118.617c9.489,-6.1 15.59,-14.912 17.623,-25.756c2.034,-10.845 -0.678,-22.368 -6.778,-31.18c-10.845,-15.589 -29.824,-22.367 -48.125,-17.623c-4.066,1.356 -8.133,2.711 -11.522,4.745l-71.17,45.413c-11.523,7.456 -24.402,12.879 -37.958,16.268c-60.325,15.589 -123.361,-8.134 -158.607,-58.97c-21.012,-29.824 -29.824,-67.103 -23.046,-103.705c6.1,-35.246 27.79,-67.103 58.292,-86.082l186.398,-118.616c11.522,-7.456 24.401,-12.879 37.957,-16.946c60.325,-15.589 123.361,8.134 158.608,58.97c21.689,29.823 29.823,67.103 23.723,103.705c-1.356,6.1 -2.711,11.522 -4.745,17.623l-3.389,10.845l-9.489,-6.778c-22.368,-16.268 -46.769,-28.468 -73.204,-36.602l-6.778,-2.034l0.678,-6.778c0.678,-9.489 -2.033,-19.656 -7.456,-27.79c-10.845,-15.589 -29.824,-22.368 -48.124,-17.623c-4.067,1.356 -8.134,2.711 -11.523,4.745l-185.72,118.617c-9.489,6.1 -15.59,14.911 -17.623,25.756c-2.034,10.845 0.678,22.368 6.778,31.18c10.845,15.589 29.824,22.367 48.124,17.623c4.067,-1.356 8.134,-2.712 11.523,-4.745l71.17,-45.413c11.523,-7.456 24.401,-12.879 37.958,-16.946c60.325,-15.589 123.361,8.134 158.607,58.97c21.69,29.824 29.824,67.103 23.724,103.705c-6.101,35.246 -27.791,67.103 -58.292,86.082l-0.04,0.025l-142.91,0c-32.453,0 -58.8,26.347 -58.8,58.8l-0,68.238Z" style="fill:#fff;"/></g><g><rect x="430" y="640" width="325" height="160" style="fill:#fff;"/><path d="M758.667,845l-342.334,0c-15.817,0 -28.833,-13.016 -28.833,-28.833l-0,-188.5c-0,-15.818 13.016,-28.834 28.833,-28.834l342.334,0c15.817,0 28.833,13.016 28.833,28.834l-0,188.466c-0,0.006 0,0.011 0,0.017c0,15.817 -13.016,28.833 -28.833,28.833c-0,0 -0,0.017 -0,0.017Zm-275.017,-57.7l-0,-75l38.467,48.083l38.45,-48.083l-0,75l38.466,0l0,-130.75l-38.466,0l-38.45,48.083l-38.467,-48.083l-38.483,0l-0,130.783l38.483,-0.033Zm257.717,-65.383l-38.484,-0l0,-65.384l-38.45,0l0,65.384l-38.466,-0l57.683,67.316l57.717,-67.316Z" style="fill:#ff3e00;fill-rule:nonzero;"/></g></g></svg>