<?xml version="1.0" encoding="UTF-8" standalone="no"?>
<!DOCTYPE svg PUBLIC "-//W3C//DTD SVG 1.1//EN" "http://www.w3.org/Graphics/SVG/1.1/DTD/svg11.dtd">
<svg width="100%" height="100%" viewBox="0 0 512 512" version="1.1" xmlns="http://www.w3.org/2000/svg" xmlns:xlink="http://www.w3.org/1999/xlink" xml:space="preserve" xmlns:serif="http://www.serif.com/" style="fill-rule:evenodd;clip-rule:evenodd;stroke-linejoin:round;stroke-miterlimit:2;">
    <g transform="matrix(21.329,0,0,21.329,-7.99839,-8.57573)">
        <path d="M23.382,2.583c0.394,-0.395 0.502,-0.503 0.502,-0.825c-0,-0.537 -0.43,-0.789 -0.754,-0.789c-0.357,0 -0.465,0.108 -0.895,0.538l-8.353,8.317c-0.609,-2.116 -1.505,-5.377 -2.831,-7.241c-1.291,-1.792 -4.23,-1.9 -5.736,-1.9c-3.333,0 -4.086,2.402 -4.086,2.76c-0,0.501 0.431,0.501 0.825,0.501c0.645,0 0.717,-0.036 0.859,-0.537c0.36,-0.895 1.219,-1.433 1.828,-1.433c1.255,0 3.299,4.086 3.371,4.23c1.039,2.042 1.362,3.333 2.329,6.989l-9.068,9.069c-0.394,0.393 -0.502,0.501 -0.502,0.825c0,0.357 0.286,0.753 0.789,0.753c0.286,-0 0.466,-0.144 0.466,-0.18c0.43,-0.288 4.158,-4.158 8.781,-8.639c1.041,3.908 1.828,5.52 2.581,6.811c0.932,1.612 2.832,2.294 5.986,2.294c3.405,-0 4.05,-2.51 4.05,-2.76c0,-0.503 -0.465,-0.503 -0.823,-0.503c-0.61,0 -0.681,0.036 -0.861,0.539c-0.322,0.931 -1.219,1.433 -1.792,1.433c-1.219,-0 -3.119,-3.692 -3.227,-3.906c-1.147,-2.26 -1.576,-3.8 -2.508,-7.313l9.069,-9.033" style="fill-rule:nonzero;"/>
    </g>
</svg>
