<?xml version="1.0" encoding="UTF-8" standalone="no"?><!DOCTYPE svg PUBLIC "-//W3C//DTD SVG 1.1//EN" "http://www.w3.org/Graphics/SVG/1.1/DTD/svg11.dtd"><svg width="100%" height="100%" viewBox="0 0 531 147" version="1.1" xmlns="http://www.w3.org/2000/svg" xmlns:xlink="http://www.w3.org/1999/xlink" xml:space="preserve" xmlns:serif="http://www.serif.com/" style="fill-rule:evenodd;clip-rule:evenodd;stroke-linecap:round;stroke-linejoin:round;stroke-miterlimit:1.5;"><g><path d="M20.45,1.25l489.6,0c10.597,0 19.2,8.603 19.2,19.2l-0,105.6c-0,10.597 -8.603,19.2 -19.2,19.2l-489.6,-0c-10.597,-0 -19.2,-8.603 -19.2,-19.2l0,-105.6c0,-10.597 8.603,-19.2 19.2,-19.2Z" style="fill:url(#_Linear1);stroke:url(#_Linear2);stroke-width:2.5px;"/><g><path d="M42.53,33.65l131.04,0c4.239,0 7.68,3.441 7.68,7.68l-0,3.84c-0,4.239 -3.441,7.68 -7.68,7.68l-131.04,0c-4.239,0 -7.68,-3.441 -7.68,-7.68l0,-3.84c0,-4.239 3.441,-7.68 7.68,-7.68Z" style="fill:url(#_Linear3);stroke:url(#_Linear4);stroke-width:1px;"/><g transform="matrix(7,0,0,7,158.45,45.84)"></g><text x="57.65px" y="45.84px" style="font-family:'IBMPlexMono-Medium', 'IBM Plex Mono', monospace;font-weight:500;font-size:7px;fill:#d4d4d4;">&lt;tex ref=&quot;...&quot;&gt;...&lt;/ref&gt;</text></g><g><path d="M42.53,91.25l131.04,-0c4.239,-0 7.68,3.441 7.68,7.68l-0,3.84c-0,4.239 -3.441,7.68 -7.68,7.68l-131.04,-0c-4.239,-0 -7.68,-3.441 -7.68,-7.68l-0,-3.84c-0,-4.239 3.441,-7.68 7.68,-7.68Z" style="fill:url(#_Linear5);stroke:url(#_Linear6);stroke-width:1px;"/><g transform="matrix(7,0,0,7,173.15,103.44)"></g><text x="42.95px" y="103.44px" style="font-family:'IBMPlexMono-Medium', 'IBM Plex Mono', monospace;font-weight:500;font-size:7px;fill:#e2e2e2;">&lt;svelte:component this={...} /&gt;</text></g><g id="arrows"><path d="M306.05,43.25l9.6,0" style="fill:none;stroke:#303132;stroke-width:5px;stroke-linecap:butt;"/><path d="M401,34.812l11.25,8.438l-11.25,8.437l0,-16.875Z" style="fill:#303132;"/><path d="M393.65,43.25l9.6,0" style="fill:none;stroke:#303132;stroke-width:5px;stroke-linecap:butt;"/><path d="M357.658,100.85l9.6,-0" style="fill:none;stroke:#303132;stroke-width:5px;stroke-linecap:butt;"/><path d="M452.45,81.65l0,12" style="fill:none;stroke:#303132;stroke-width:5px;stroke-linecap:butt;"/><path d="M421.1,109.288l-11.25,-8.438l11.25,-8.437l-0,16.875Z" style="fill:#303132;"/><path d="M428.45,100.85l-9.6,-0" style="fill:none;stroke:#303132;stroke-width:5px;stroke-linecap:butt;"/><path d="M314.308,109.288l-11.25,-8.438l11.25,-8.437l0,16.875Z" style="fill:#303132;"/><path d="M321.658,100.85l-9.6,-0" style="fill:none;stroke:#303132;stroke-width:5px;stroke-linecap:butt;"/><path d="M190.85,43.322l9.6,-0" style="fill:none;stroke:#303132;stroke-width:5px;stroke-linecap:butt;"/><path d="M190.85,100.85l9.6,-0" style="fill:none;stroke:#303132;stroke-width:5px;stroke-linecap:butt;"/><path d="M246.2,34.885l11.25,8.437l-11.25,8.438l-0,-16.875Z" style="fill:#303132;"/><path d="M238.85,43.322l9.6,0" style="fill:none;stroke:#303132;stroke-width:5px;stroke-linecap:butt;"/><path d="M116.487,75.8l-8.437,11.25l-8.438,-11.25l16.875,-0Z" style="fill:#303132;"/><path d="M108.05,56.45l-0,21.6" style="fill:none;stroke:#303132;stroke-width:5px;stroke-linecap:butt;"/><path d="M246.2,92.413l11.25,8.437l-11.25,8.438l-0,-16.875Z" style="fill:#303132;"/><path d="M238.85,100.85l9.6,0" style="fill:none;stroke:#303132;stroke-width:5px;stroke-linecap:butt;"/></g><g id="outline-boxes" serif:id="outline boxes"><path d="M393.65,39.89l-0,6.72c-0,2.119 -1.721,3.84 -3.84,3.84l-70.32,0c-2.119,0 -3.84,-1.721 -3.84,-3.84l-0,-6.72c-0,-2.119 1.721,-3.84 3.84,-3.84l70.32,0c2.119,0 3.84,1.721 3.84,3.84Z" style="fill:none;stroke:#303030;stroke-width:1px;stroke-linecap:butt;"/><path d="M476.45,97.49l0,6.72c0,2.119 -1.721,3.84 -3.84,3.84l-40.32,0c-2.119,0 -3.84,-1.721 -3.84,-3.84l0,-6.72c0,-2.119 1.721,-3.84 3.84,-3.84l40.32,-0c2.119,-0 3.84,1.721 3.84,3.84Z" style="fill:none;stroke:#303030;stroke-width:1px;stroke-linecap:butt;"/><path d="M357.658,97.49l0,6.72c0,2.119 -1.72,3.84 -3.84,3.84l-28.32,0c-2.119,0 -3.84,-1.721 -3.84,-3.84l0,-6.72c0,-2.119 1.721,-3.84 3.84,-3.84l28.32,-0c2.12,-0 3.84,1.721 3.84,3.84Z" style="fill:none;stroke:#303030;stroke-width:1px;stroke-linecap:butt;"/><path d="M238.85,39.89l-0,6.72c-0,2.119 -1.721,3.84 -3.84,3.84l-30.72,0c-2.119,0 -3.84,-1.721 -3.84,-3.84l-0,-6.72c-0,-2.119 1.721,-3.84 3.84,-3.84l30.72,0c2.119,0 3.84,1.721 3.84,3.84Z" style="fill:none;stroke:#303030;stroke-width:1px;stroke-linecap:butt;"/><path d="M238.85,97.49l0,6.72c0,2.119 -1.721,3.84 -3.84,3.84l-30.72,0c-2.119,0 -3.84,-1.721 -3.84,-3.84l0,-6.72c0,-2.119 1.721,-3.84 3.84,-3.84l30.72,0c2.119,0 3.84,1.721 3.84,3.84Z" style="fill:none;stroke:#303030;stroke-width:1px;stroke-linecap:butt;"/></g><g transform="matrix(9,0,0,9,381.619,46.58)"></g><text x="327.681px" y="46.58px" style="font-family:'IBMPlexSans-Medium', 'IBM Plex Sans', sans-serif;font-weight:500;font-size:9px;fill:#e2e2e2;">La<tspan x="336.618px 341.226px 346.077px " y="46.58px 46.58px 46.58px ">TeX</tspan> engine</text><g transform="matrix(9,0,0,9,456.41,104.18)"><path d="M0.514,-0.023c0,0.074 -0.02,0.132 -0.062,0.173c-0.04,0.041 -0.1,0.062 -0.179,0.062c-0.046,-0 -0.085,-0.007 -0.117,-0.021c-0.031,-0.013 -0.057,-0.031 -0.077,-0.052l0.061,-0.071c0.034,0.036 0.078,0.054 0.132,0.054c0.043,0 0.076,-0.012 0.099,-0.035c0.023,-0.024 0.034,-0.058 0.034,-0.102l0,-0.075l-0.005,0c-0.011,0.031 -0.03,0.055 -0.055,0.072c-0.026,0.017 -0.056,0.026 -0.091,0.026c-0.066,0 -0.117,-0.024 -0.153,-0.071c-0.036,-0.047 -0.054,-0.114 -0.054,-0.199c0,-0.085 0.018,-0.152 0.054,-0.199c0.036,-0.047 0.087,-0.071 0.153,-0.071c0.035,0 0.065,0.009 0.091,0.025c0.025,0.017 0.044,0.042 0.055,0.073l0.005,0l0,-0.086l0.109,0l0,0.497Zm-0.227,-0.063c0.033,0 0.061,-0.008 0.084,-0.024c0.023,-0.017 0.034,-0.038 0.034,-0.065l0,-0.174c0,-0.027 -0.011,-0.048 -0.034,-0.065c-0.023,-0.016 -0.051,-0.024 -0.084,-0.024c-0.038,0 -0.068,0.012 -0.091,0.037c-0.023,0.024 -0.034,0.056 -0.034,0.096l0,0.086c0,0.04 0.011,0.072 0.034,0.097c0.023,0.024 0.053,0.036 0.091,0.036Z" style="fill:#e2e2e2;fill-rule:nonzero;"/></g><g transform="matrix(9,0,0,9,456.41,104.18)"></g><g transform="matrix(9,0,0,9,469.676,104.18)"></g><text x="435.224px" y="104.18px" style="font-family:'IBMPlexSans-Medium', 'IBM Plex Sans', sans-serif;font-weight:500;font-size:9px;fill:#e2e2e2;">dvis<tspan x="451.874px 461.738px " y="104.18px 104.18px ">vm</tspan></text><g transform="matrix(9,0,0,9,351.426,104.18)"></g><text x="327.891px" y="104.18px" style="font-family:'IBMPlexSans-Medium', 'IBM Plex Sans', sans-serif;font-weight:500;font-size:9px;fill:#e2e2e2;">SV<tspan x="338.673px " y="104.18px ">G</tspan>O</text><g id="files"><g id="file-outlines" serif:id="file outlines"><g><path d="M290.621,57.65l-17.142,0c-1.881,0 -3.429,-1.505 -3.429,-3.333l-0,-23.334c-0,-1.828 1.548,-3.333 3.429,-3.333l12,-0l8.571,8.333l-0,18.334c-0,1.828 -1.548,3.333 -3.429,3.333Z" style="fill:#303030;fill-opacity:0.2;fill-rule:nonzero;stroke:#313131;stroke-width:1.09px;stroke-miterlimit:4;"/><path d="M285.479,27.65l-0,6.667c-0,0.914 0.773,1.666 1.714,1.666l6.857,0" style="fill:none;fill-rule:nonzero;stroke:#313131;stroke-width:1.09px;stroke-miterlimit:4;"/></g><g><path d="M445.421,57.65l-17.142,0c-1.881,0 -3.429,-1.505 -3.429,-3.333l0,-23.334c0,-1.828 1.548,-3.333 3.429,-3.333l12,-0l8.571,8.333l0,18.334c0,1.828 -1.548,3.333 -3.429,3.333Z" style="fill:#303030;fill-opacity:0.2;fill-rule:nonzero;stroke:#313131;stroke-width:1.09px;stroke-miterlimit:4;"/><path d="M440.279,27.65l-0,6.667c-0,0.914 0.773,1.666 1.714,1.666l6.857,0" style="fill:none;fill-rule:nonzero;stroke:#313131;stroke-width:1.09px;stroke-miterlimit:4;"/></g><g><path d="M476.621,57.65l-17.142,0c-1.881,0 -3.429,-1.505 -3.429,-3.333l-0,-23.334c-0,-1.828 1.548,-3.333 3.429,-3.333l12,-0l8.571,8.333l0,18.334c0,1.828 -1.548,3.333 -3.429,3.333Z" style="fill:#303030;fill-opacity:0.2;fill-rule:nonzero;stroke:#313131;stroke-width:1.09px;stroke-miterlimit:4;"/><path d="M471.479,27.65l-0,6.667c-0,0.914 0.773,1.666 1.714,1.666l6.857,0" style="fill:none;fill-rule:nonzero;stroke:#313131;stroke-width:1.09px;stroke-miterlimit:4;"/></g><g><path d="M397.43,112.85l-17.143,-0c-1.881,-0 -3.429,-1.505 -3.429,-3.333l0,-23.334c0,-1.828 1.548,-3.333 3.429,-3.333l12,-0l8.571,8.333l0,18.334c0,1.828 -1.547,3.333 -3.428,3.333Z" style="fill:#303030;fill-opacity:0.2;fill-rule:nonzero;stroke:#313131;stroke-width:1.09px;stroke-miterlimit:4;"/><path d="M392.287,82.85l0,6.667c0,0.914 0.774,1.666 1.714,1.666l6.857,0" style="fill:none;fill-rule:nonzero;stroke:#313131;stroke-width:1.09px;stroke-miterlimit:4;"/></g><g><path d="M290.621,112.85l-17.142,-0c-1.881,-0 -3.429,-1.505 -3.429,-3.333l0,-23.334c0,-1.828 1.548,-3.333 3.429,-3.333l12,-0l8.571,8.333l0,18.334c0,1.828 -1.548,3.333 -3.429,3.333Z" style="fill:#303030;fill-opacity:0.2;fill-rule:nonzero;stroke:#313131;stroke-width:1.09px;stroke-miterlimit:4;"/><path d="M285.479,82.85l-0,6.667c-0,0.914 0.773,1.666 1.714,1.666l6.857,0" style="fill:none;fill-rule:nonzero;stroke:#313131;stroke-width:1.09px;stroke-miterlimit:4;"/></g></g><g id="extensions"><g><g transform="matrix(9,0,0,9,289.718,53.48)"></g><text x="274.382px" y="53.48px" style="font-family:'IBMPlexSans-Medium', 'IBM Plex Sans', sans-serif;font-weight:500;font-size:9px;fill:#e2e2e2;">.<tspan x="276.821px 280.07px 284.948px " y="53.48px 53.48px 53.48px ">tex</tspan></text></g><g><g transform="matrix(9,0,0,9,444.234,53.12)"></g><text x="429.466px" y="53.12px" style="font-family:'IBMPlexSans-Medium', 'IBM Plex Sans', sans-serif;font-weight:500;font-size:9px;fill:#e2e2e2;">.<tspan x="431.914px " y="53.12px ">d</tspan>vi</text></g><g><g transform="matrix(9,0,0,9,476.213,53.12)"></g><text x="459.887px" y="53.12px" style="font-family:'IBMPlexSans-Medium', 'IBM Plex Sans', sans-serif;font-weight:500;font-size:9px;fill:#e2e2e2;">.pdf</text></g><g><g transform="matrix(9,0,0,9,391.932,108.32)"><path d="M0.514,-0.023c0,0.074 -0.02,0.132 -0.062,0.173c-0.04,0.041 -0.1,0.062 -0.179,0.062c-0.046,-0 -0.085,-0.007 -0.117,-0.021c-0.031,-0.013 -0.057,-0.031 -0.077,-0.052l0.061,-0.071c0.034,0.036 0.078,0.054 0.132,0.054c0.043,0 0.076,-0.012 0.099,-0.035c0.023,-0.024 0.034,-0.058 0.034,-0.102l0,-0.075l-0.005,0c-0.011,0.031 -0.03,0.055 -0.055,0.072c-0.026,0.017 -0.056,0.026 -0.091,0.026c-0.066,0 -0.117,-0.024 -0.153,-0.071c-0.036,-0.047 -0.054,-0.114 -0.054,-0.199c0,-0.085 0.018,-0.152 0.054,-0.199c0.036,-0.047 0.087,-0.071 0.153,-0.071c0.035,0 0.065,0.009 0.091,0.025c0.025,0.017 0.044,0.042 0.055,0.073l0.005,0l0,-0.086l0.109,0l0,0.497Zm-0.227,-0.063c0.033,0 0.061,-0.008 0.084,-0.024c0.023,-0.017 0.034,-0.038 0.034,-0.065l0,-0.174c0,-0.027 -0.011,-0.048 -0.034,-0.065c-0.023,-0.016 -0.051,-0.024 -0.084,-0.024c-0.038,0 -0.068,0.012 -0.091,0.037c-0.023,0.024 -0.034,0.056 -0.034,0.096l0,0.086c0,0.04 0.011,0.072 0.034,0.097c0.023,0.024 0.053,0.036 0.091,0.036Z" style="fill:#e2e2e2;fill-rule:nonzero;"/></g><g transform="matrix(9,0,0,9,391.932,108.32)"></g><g transform="matrix(9,0,0,9,397.26,108.32)"></g><text x="380.457px" y="108.32px" style="font-family:'IBMPlexSans-Medium', 'IBM Plex Sans', sans-serif;font-weight:500;font-size:9px;fill:#e2e2e2;">.s<tspan x="387.396px " y="108.32px ">v</tspan></text></g><g><g transform="matrix(7,0,0,7,291.629,107.58)"></g><text x="272.47px" y="107.58px" style="font-family:'IBMPlexSansCond-Medium', 'IBM Plex Sans Condensed', sans-serif;font-weight:500;font-stretch:condensed;font-size:7px;fill:#e2e2e2;">.sv<tspan x="280.555px " y="107.58px ">e</tspan>lte</text></g></g></g><g transform="matrix(9,0,0,9,235.112,46.58)"></g><text x="204.188px" y="46.58px" style="font-family:'IBMPlexSans-Medium', 'IBM Plex Sans', sans-serif;font-weight:500;font-size:9px;fill:#e2e2e2;">node:fs</text><g transform="matrix(9,0,0,9,151.133,69.38)"></g><text x="115.367px" y="69.38px" style="font-family:'IBMPlexSans-MediumItalic', 'IBM Plex Sans', sans-serif;font-weight:500;font-style:italic;font-size:9px;fill:#b7b7b7;">becomes</text><g transform="matrix(9,0,0,9,235.85,104.18)"></g><text x="203.45px" y="104.18px" style="font-family:'IBMPlexMono-Medium', 'IBM Plex Mono', monospace;font-weight:500;font-size:9px;fill:#e2e2e2;">import</text><g transform="matrix(6,0,0,6,323.732,67.07)"></g><text x="240.368px" y="67.07px" style="font-family:'IBMPlexSans-Regular', 'IBM Plex Sans', sans-serif;font-size:6px;fill:#919191;">node<tspan x="253.61px " y="67.07px ">_</tspan>modules/.cache/s<tspan x="305.288px " y="67.07px ">v</tspan>elt<tspan x="315.17px " y="67.07px ">e</tspan>x/</text><g transform="matrix(6,0,0,6,494.132,67.07)"></g><text x="410.768px" y="67.07px" style="font-family:'IBMPlexSans-Regular', 'IBM Plex Sans', sans-serif;font-size:6px;fill:#919191;">node<tspan x="424.01px " y="67.07px ">_</tspan>modules/.cache/s<tspan x="475.688px " y="67.07px ">v</tspan>elt<tspan x="485.57px " y="67.07px ">e</tspan>x/</text><g transform="matrix(6,0,0,6,404.737,122.27)"></g><text x="372.979px" y="122.27px" style="font-family:'IBMPlexSans-Regular', 'IBM Plex Sans', sans-serif;font-size:6px;fill:#919191;">src/svel<tspan x="394.093px " y="122.27px ">t</tspan>ex/</text><g transform="matrix(6,0,0,6,297.929,122.27)"></g><text x="266.171px" y="122.27px" style="font-family:'IBMPlexSans-Regular', 'IBM Plex Sans', sans-serif;font-size:6px;fill:#919191;">src/svel<tspan x="287.285px " y="122.27px ">t</tspan>ex/</text></g><defs><linearGradient id="_Linear1" x1="0" y1="0" x2="1" y2="0" gradientUnits="userSpaceOnUse" gradientTransform="matrix(8.81746e-15,-144,528,3.23307e-14,265.25,145.25)"><stop offset="0" style="stop-color:#090909;stop-opacity:1"/><stop offset="1" style="stop-color:#171717;stop-opacity:1"/></linearGradient><linearGradient id="_Linear2" x1="0" y1="0" x2="1" y2="0" gradientUnits="userSpaceOnUse" gradientTransform="matrix(8.81746e-15,-144,528,3.23307e-14,265.25,145.25)"><stop offset="0" style="stop-color:#111;stop-opacity:1"/><stop offset="1" style="stop-color:#212121;stop-opacity:1"/></linearGradient><linearGradient id="_Linear3" x1="0" y1="0" x2="1" y2="0" gradientUnits="userSpaceOnUse" gradientTransform="matrix(2.75828e-15,-19.2,146.4,3.8209e-15,108.05,52.85)"><stop offset="0" style="stop-color:#1b1b1b;stop-opacity:1"/><stop offset="1" style="stop-color:#303030;stop-opacity:1"/></linearGradient><linearGradient id="_Linear4" x1="0" y1="0" x2="1" y2="0" gradientUnits="userSpaceOnUse" gradientTransform="matrix(2.75828e-15,-19.2,146.4,3.8209e-15,108.05,52.85)"><stop offset="0" style="stop-color:#212121;stop-opacity:1"/><stop offset="1" style="stop-color:#3b3b3b;stop-opacity:1"/></linearGradient><linearGradient id="_Linear5" x1="0" y1="0" x2="1" y2="0" gradientUnits="userSpaceOnUse" gradientTransform="matrix(1.19526e-15,-19.2,146.4,8.81746e-15,108.05,110.45)"><stop offset="0" style="stop-color:#1b1b1b;stop-opacity:1"/><stop offset="1" style="stop-color:#303030;stop-opacity:1"/></linearGradient><linearGradient id="_Linear6" x1="0" y1="0" x2="1" y2="0" gradientUnits="userSpaceOnUse" gradientTransform="matrix(1.19526e-15,-19.2,146.4,8.81746e-15,108.05,110.45)"><stop offset="0" style="stop-color:#212121;stop-opacity:1"/><stop offset="1" style="stop-color:#3b3b3b;stop-opacity:1"/></linearGradient></defs></svg>